<svg width="32" height="32" viewBox="0 0 32 32" fill="none" xmlns="http://www.w3.org/2000/svg">
<path d="M17.6463 25.3538C17.5998 25.3073 17.5629 25.2522 17.5377 25.1915C17.5126 25.1308 17.4996 25.0657 17.4996 25C17.4996 24.9343 17.5126 24.8692 17.5377 24.8085C17.5629 24.7478 17.5998 24.6927 17.6463 24.6463L25.7925 16.5L5 16.5C4.86739 16.5 4.74022 16.4473 4.64645 16.3536C4.55268 16.2598 4.5 16.1326 4.5 16C4.5 15.8674 4.55268 15.7402 4.64645 15.6464C4.74022 15.5527 4.86739 15.5 5 15.5L25.7925 15.5L17.6463 7.35375C17.5998 7.3073 17.5629 7.25215 17.5378 7.19145C17.5127 7.13075 17.4997 7.0657 17.4997 7C17.4997 6.93431 17.5127 6.86925 17.5378 6.80855C17.5629 6.74786 17.5998 6.69271 17.6463 6.64625C17.6927 6.5998 17.7479 6.56295 17.8086 6.53781C17.8692 6.51266 17.9343 6.49972 18 6.49972C18.0657 6.49972 18.1308 6.51266 18.1914 6.53781C18.2521 6.56295 18.3073 6.5998 18.3538 6.64625L27.3537 15.6463C27.4002 15.6927 27.4371 15.7478 27.4623 15.8085C27.4874 15.8692 27.5004 15.9343 27.5004 16C27.5004 16.0657 27.4874 16.1308 27.4623 16.1915C27.4371 16.2522 27.4002 16.3073 27.3537 16.3538L18.3538 25.3538C18.3073 25.4002 18.2522 25.4371 18.1915 25.4623C18.1308 25.4874 18.0657 25.5004 18 25.5004C17.9343 25.5004 17.8692 25.4874 17.8085 25.4623C17.7478 25.4371 17.6927 25.4002 17.6463 25.3538Z" fill="#221F20"/>
</svg>
