<svg width="86" height="86" viewBox="0 0 86 86" fill="none" xmlns="http://www.w3.org/2000/svg">
<path d="M43 86C66.7482 86 86 66.7482 86 43C86 39.8184 85.6545 36.7176 84.9989 33.7329C81.9843 20.0086 72.4141 8.74088 59.7375 3.37915C54.5931 1.20323 48.9371 0 43 0C19.2518 0 0 19.2518 0 43C0 66.7482 19.2518 86 43 86Z" fill="#221F20"/>
<path d="M63.5706 20.7049C67.3711 25.9781 69.5344 33.2255 73.4774 31C75.4699 30.1566 77.6572 25.923 70.4662 15.735C66.958 10.8675 62.233 6.87702 59.3936 8.92346C56.5542 10.9699 59.77 15.4318 63.5706 20.7049Z" fill="white"/>
<circle cx="75.9774" cy="38.1284" r="3.5" fill="white"/>
</svg>
