<svg width="422" height="128" viewBox="0 0 422 128" fill="none" xmlns="http://www.w3.org/2000/svg">
<path d="M374.282 106.199C368.723 103.655 364.299 100.319 361.01 96.1903C357.721 92.0616 355.765 87.5022 355.141 82.5122C354.627 77.4817 355.499 72.4978 357.759 67.5604C359.984 62.6977 363.202 58.7419 367.413 55.693C371.7 52.6784 376.511 50.8992 381.847 50.3553C387.184 49.8115 392.518 50.7598 397.852 53.2003C402.659 55.4002 406.459 58.3147 409.249 61.944C412.04 65.5734 413.676 69.4433 414.157 73.5538C414.672 77.5895 414.143 81.3279 412.568 84.7692C410.001 90.3799 405.977 93.5148 400.497 94.1739C395.127 94.7925 389.512 93.7613 383.653 91.0802C379.747 89.2928 376.664 87.2942 374.405 85.0842C374.981 89.7811 377.861 93.3154 383.044 95.6871C385.147 96.6495 387.52 97.4189 390.164 97.9951C391.168 98.1832 392.083 98.4663 392.909 98.8444C394.562 99.6006 395.688 100.614 396.288 101.883C396.963 103.187 396.976 104.55 396.325 105.972C395.264 108.291 392.913 109.657 389.271 110.072C385.663 110.412 380.667 109.12 374.282 106.199ZM381.007 71.5488C381.204 72.9054 381.746 74.1034 382.633 75.1427C383.63 76.1415 384.841 76.9675 386.269 77.6205C387.921 78.3767 389.52 78.6558 391.064 78.4576C392.683 78.2939 393.767 77.6135 394.314 76.4166C394.931 75.07 394.898 73.6527 394.216 72.1645C393.609 70.7108 392.292 69.5199 390.264 68.5918C388.236 67.6638 386.33 67.5606 384.546 68.2824C382.871 68.9638 381.692 70.0526 381.007 71.5488Z" fill="#B6E2F2"/>
<path d="M259.451 112.993C245.309 108.66 237.509 101.522 236.051 91.5798C234.694 81.5834 235.394 72.0888 238.149 63.0959C240.186 56.449 242.782 50.0589 245.936 43.9256C249.169 37.8161 252.815 32.9885 256.877 29.4427C260.938 25.897 265.145 24.7909 269.496 26.1243C272.216 26.9577 274.283 28.5322 275.699 30.8479C277.114 33.1635 277.319 35.9635 276.312 39.2479C275.809 40.89 275.15 42.4846 274.336 44.0315C273.522 45.5784 272.433 47.4687 271.069 49.7024C270.769 50.124 270.099 51.2017 269.058 52.9356C268.094 54.6933 267.283 56.3695 266.624 57.964C270.618 57.1349 274.791 57.3871 279.143 58.7205C283.494 60.054 287.235 62.2697 290.366 65.3676C293.574 68.4893 295.721 72.4405 296.806 77.2212C297.992 81.9474 297.699 87.2039 295.926 92.9906C294.416 97.9171 291.864 102.225 288.268 105.913C284.697 109.524 280.355 112.043 275.243 113.47C270.232 114.843 264.968 114.684 259.451 112.993ZM264.431 94.246C266.529 94.8889 268.595 94.6665 270.628 93.5788C272.763 92.4366 274.166 90.7708 274.837 88.5812C275.508 86.3916 275.279 84.2258 274.151 82.0836C273.1 79.9652 271.525 78.5845 269.427 77.9416C267.33 77.2987 265.252 77.5602 263.195 78.7262C261.137 79.8921 259.773 81.5699 259.102 83.7594C258.431 85.949 258.621 88.103 259.672 90.2214C260.747 92.2616 262.333 93.6031 264.431 94.246Z" fill="#B6E2F2"/>
<path d="M331.206 107.259C327.136 107.718 323.913 106.553 321.537 103.764C319.16 100.974 317.274 96.6816 315.877 90.8878C314.553 85.0031 313.291 76.7555 312.092 66.1449C310.939 55.9424 310.284 47.9569 310.126 42.1883C310.051 36.4105 310.837 31.6926 312.484 28.0346C314.213 24.3674 317.276 22.2854 321.672 21.7887C326.067 21.2919 329.476 22.6426 331.899 25.8406C334.403 29.0295 336.222 33.453 337.356 39.1113C338.571 44.7603 339.755 52.686 340.908 62.8885C342.043 72.9278 342.513 81.0995 342.318 87.4038C342.196 93.6173 341.252 98.3944 339.486 101.735C337.711 104.994 334.951 106.835 331.206 107.259Z" fill="#B6E2F2"/>
<path d="M206.714 90.5485C192.126 94.1356 181.624 92.0436 175.208 84.2724C168.853 76.402 164.552 67.9001 162.306 58.7665C160.646 52.0157 159.607 45.1964 159.188 38.3087C158.85 31.4014 159.536 25.379 161.248 20.2415C162.959 15.104 166.06 11.9834 170.548 10.8797C173.353 10.1899 175.973 10.4722 178.406 11.7268C180.84 12.9813 182.467 15.2764 183.287 18.6122C183.697 20.28 183.947 21.9873 184.036 23.734C184.126 25.4807 184.153 27.6639 184.117 30.2837C184.074 30.7996 184.046 32.0698 184.034 34.0942C184.102 36.0989 184.261 37.9548 184.511 39.6621C187.569 36.8888 191.342 34.9502 195.83 33.8465C200.319 32.7427 204.731 32.7106 209.066 33.7501C213.482 34.7699 217.4 37.0491 220.82 40.5878C224.301 44.0273 226.764 48.6856 228.209 54.5629C229.439 59.5664 229.439 64.5778 228.209 69.597C226.958 74.5368 224.471 78.9386 220.746 82.8024C217.082 86.5671 212.404 89.1491 206.714 90.5485ZM201.364 71.9029C203.528 71.3707 205.216 70.1133 206.428 68.1307C207.701 66.0489 208.064 63.8961 207.518 61.6723C206.971 59.4485 205.651 57.7096 203.557 56.4557C201.544 55.182 199.456 54.8112 197.292 55.3434C195.127 55.8756 193.449 57.1727 192.256 59.2347C191.063 61.2968 190.74 63.4397 191.287 65.6635C191.834 67.8873 193.114 69.6361 195.127 70.9097C197.121 72.104 199.199 72.435 201.364 71.9029Z" fill="#B6E2F2"/>
<path d="M122.5 107.517C116.567 107.517 111.366 106.036 106.897 103.074C102.427 100.03 98.9731 95.8344 96.5351 90.4869C94.1784 85.0571 93 78.8047 93 71.7295C93 64.8189 94.0971 59.3891 96.2913 55.4401C98.4855 51.4912 101.533 49.5167 105.434 49.5167C112.342 49.5167 115.795 53.0954 115.795 60.2529C115.795 61.7337 115.755 63.0501 115.674 64.2018C115.592 65.2713 115.511 66.2174 115.43 67.0401C115.105 70.3309 114.942 72.9635 114.942 74.938C114.942 78.5579 115.674 81.3139 117.136 83.2061C118.599 85.0983 120.387 86.0444 122.5 86.0444C124.694 86.0444 126.482 85.1394 127.864 83.3295C129.326 81.4373 130.058 78.6401 130.058 74.938C130.058 72.3054 129.936 69.8784 129.692 67.6572C129.611 66.9167 129.53 65.8472 129.448 64.4486C129.367 62.9678 129.326 61.6103 129.326 60.3763C129.326 53.1366 132.78 49.5167 139.688 49.5167C143.589 49.5167 146.596 51.4912 148.709 55.4401C150.903 59.3068 152 64.7366 152 71.7295C152 82.6713 149.481 91.3919 144.442 97.8912C139.404 104.308 132.09 107.517 122.5 107.517Z" fill="#B6E2F2"/>
<path d="M57.6192 119.552C44.2937 122.289 33.6157 121.113 25.5853 116.022C17.635 110.914 12.1138 101.058 9.02165 86.454C6.21831 73.2139 7.22498 62.1434 12.0417 53.2426C16.8414 44.2616 25.0937 38.5319 36.7988 36.0535C44.0143 34.5258 50.5371 34.2765 56.3673 35.3058C62.1976 36.335 66.9805 38.5502 70.7162 41.9513C74.4519 45.3523 76.8974 49.7811 78.0527 55.2376C78.9702 59.5708 78.8236 63.6261 77.6131 67.4037C76.4827 71.1643 74.3539 74.7591 71.2267 78.1879C74.295 78.0413 77.2003 79.103 79.9425 81.3729C82.765 83.6259 84.5585 86.5579 85.3231 90.1688C86.1386 94.0205 85.8694 97.8922 84.5155 101.784C83.2248 105.579 80.3635 109.077 75.9318 112.279C71.5802 115.464 65.476 117.888 57.6192 119.552ZM39.8156 76.4127C41.4116 76.8293 43.2919 76.8085 45.4565 76.3502C48.022 75.807 50.0993 74.7384 51.6884 73.1443C53.3407 71.453 53.9035 69.3636 53.3768 66.8761C52.8671 64.4688 51.5228 62.867 49.3438 62.0707C47.228 61.1773 44.8473 61.0106 42.2016 61.5708C40.1171 62.0122 38.4298 62.7467 37.1396 63.7744C36.1192 64.4935 35.4558 65.5143 35.1494 66.8368C34.8431 68.1593 34.8343 69.5026 35.1231 70.8667C35.412 72.2308 35.9644 73.4553 36.7804 74.5401C37.5795 75.5447 38.5912 76.1689 39.8156 76.4127ZM45.779 104.578C47.4382 104.897 49.31 104.836 51.3945 104.395C53.96 103.852 56.0543 102.864 57.6773 101.43C59.3636 99.8991 59.9774 98.0505 59.5187 95.8839C59.0769 93.7976 57.7751 92.3964 55.6131 91.6804C53.4511 90.9644 51.0874 90.878 48.5219 91.4212C46.5176 91.8456 44.8217 92.54 43.4344 93.5045C42.4139 94.2236 41.7335 95.1641 41.3932 96.3261C41.0359 97.4078 40.9847 98.5505 41.2395 99.7542C41.4943 100.958 42.0128 102.022 42.7949 102.946C43.56 103.79 44.5547 104.334 45.779 104.578Z" fill="#B6E2F2"/>
</svg>
