<svg width="238" height="352" viewBox="0 0 238 352" fill="none" xmlns="http://www.w3.org/2000/svg">
<path d="M205 329L236.5 33.5H1.5L31 329" stroke="#221F20" stroke-width="2"/>
<path d="M237 30.5C237 34.1515 234.092 37.9039 228.13 41.5167C222.228 45.0932 213.621 48.3495 202.897 51.0981C181.465 56.5913 151.802 60 119 60C86.1977 60 56.5351 56.5913 35.1026 51.0981C24.3788 48.3495 15.7719 45.0932 9.86985 41.5167C3.90775 37.9039 1 34.1515 1 30.5C1 26.8485 3.90775 23.0961 9.86985 19.4833C15.7719 15.9068 24.3788 12.6505 35.1026 9.90193C56.5351 4.40873 86.1977 1 119 1C151.802 1 181.465 4.40873 202.897 9.90193C213.621 12.6505 222.228 15.9068 228.13 19.4833C234.092 23.0961 237 26.8485 237 30.5Z" fill="#221F20" stroke="#221F20" stroke-width="2"/>
<path d="M205 329C205 331.626 202.946 334.391 198.559 337.102C194.226 339.779 187.89 342.227 179.973 344.296C164.152 348.431 142.241 351 118 351C93.7593 351 71.8483 348.431 56.0275 344.296C48.1096 342.227 41.7737 339.779 37.4411 337.102C33.0536 334.391 31 331.626 31 329C31 326.374 33.0536 323.609 37.4411 320.898C41.7737 318.221 48.1096 315.773 56.0275 313.704C71.8483 309.569 93.7593 307 118 307C142.241 307 164.152 309.569 179.973 313.704C187.89 315.773 194.226 318.221 198.559 320.898C202.946 323.609 205 326.374 205 329Z" fill="#221F20" stroke="#221F20" stroke-width="2"/>
<circle cx="109.5" cy="272.452" r="19.5" fill="#221F20"/>
<circle cx="82.5" cy="210.452" r="19.5" fill="#221F20"/>
<circle cx="172.5" cy="209.452" r="19.5" fill="#221F20"/>
<circle cx="172.5" cy="262.452" r="19.5" fill="#221F20"/>
<path fill-rule="evenodd" clip-rule="evenodd" d="M135.428 247.68C125.361 251.506 114.098 246.447 110.272 236.38C106.446 226.313 111.505 215.051 121.572 211.225C131.639 207.398 142.902 212.458 146.728 222.525C150.554 232.592 145.495 243.854 135.428 247.68ZM138.219 233.263C137.627 234.16 136.924 235.019 136.261 235.829C134.534 237.94 133.079 239.718 134.579 240.966C135.471 241.898 138.295 242.22 142.45 236.053C144.42 233.067 145.643 229.587 143.901 228.438C142.159 227.289 140.353 230.027 138.219 233.263ZM128.868 244.825C129.26 245.857 130.625 246.296 131.915 245.806C133.206 245.315 133.934 244.081 133.542 243.048C133.149 242.016 131.785 241.576 130.494 242.067C129.204 242.557 128.475 243.792 128.868 244.825Z" fill="#221F20"/>
<path fill-rule="evenodd" clip-rule="evenodd" d="M145.624 189.781C140.472 199.238 128.629 202.728 119.172 197.576C109.714 192.424 106.224 180.581 111.376 171.124C116.528 161.667 128.371 158.176 137.828 163.328C147.286 168.48 150.776 180.324 145.624 189.781ZM138.358 177.019C138.493 178.085 138.519 179.195 138.543 180.241C138.605 182.969 138.658 185.265 140.609 185.236C141.893 185.363 144.246 183.77 143.387 176.383C142.938 172.834 141.602 169.396 139.532 169.658C137.461 169.919 137.872 173.173 138.358 177.019ZM138.785 191.883C139.755 192.411 141.077 191.857 141.737 190.644C142.398 189.432 142.147 188.02 141.177 187.492C140.207 186.964 138.885 187.518 138.225 188.731C137.564 189.943 137.815 191.354 138.785 191.883Z" fill="#221F20"/>
<path fill-rule="evenodd" clip-rule="evenodd" d="M82.6418 256.441C83.0087 267.204 74.5808 276.227 63.8175 276.594C53.0542 276.961 44.0314 268.533 43.6644 257.77C43.2975 247.007 51.7254 237.984 62.4887 237.617C73.252 237.25 82.2748 245.678 82.6418 256.441ZM69.9001 249.14C70.5578 249.99 71.1436 250.933 71.6959 251.822C73.1356 254.139 74.3478 256.091 76.0134 255.074C77.1838 254.531 78.4014 251.963 73.9087 246.038C71.719 243.208 68.8219 240.926 67.1713 242.203C65.5207 243.481 67.5279 246.074 69.9001 249.14ZM77.819 261.726C78.923 261.688 79.7797 260.539 79.7327 259.159C79.6857 257.779 78.7526 256.691 77.6487 256.729C76.5448 256.767 75.688 257.916 75.735 259.296C75.7821 260.675 76.7151 261.764 77.819 261.726Z" fill="#221F20"/>
</svg>
