<svg width="46" height="46" viewBox="0 0 46 46" fill="none" xmlns="http://www.w3.org/2000/svg">
<path d="M33.4362 16.5241C32.3657 16.1371 31.2353 15.9419 30.0969 15.9476C26.4213 15.9476 23.8237 17.8049 23.8079 20.4628C23.7777 22.4164 25.6493 23.5175 27.0638 24.1759C28.5171 24.8501 29.003 25.2698 28.9958 25.8678C28.9886 26.7892 27.8343 27.2004 26.772 27.2004C25.2957 27.2004 24.495 26.9991 23.2602 26.4816L22.8016 26.2646L22.2784 29.3351C23.1768 29.7016 24.7868 30.0236 26.4486 30.0538C30.3643 30.0538 32.9173 28.2124 32.9461 25.3733C32.9762 23.8165 31.9743 22.6349 29.8396 21.6602C28.5516 21.0321 27.7452 20.6037 27.7452 19.9597C27.7452 19.3904 28.4338 18.7924 29.8713 18.7924C30.8252 18.7685 31.7736 18.9443 32.6557 19.3085L33.0079 19.4652L33.5239 16.5082L33.4362 16.5241ZM42.9913 16.2021H40.1163C39.2179 16.2021 38.5509 16.4421 38.1541 17.3334L32.6284 29.8583H36.5369L37.3247 27.807L42.0929 27.8142C42.2122 28.2929 42.5486 29.8569 42.5486 29.8569H46L42.9913 16.2021ZM18.515 16.0899H22.2367L19.9079 29.7519H16.1863L18.515 16.0827V16.0899ZM9.05194 23.6138L9.43287 25.5156L13.0784 16.2021H17.0243L11.1536 29.8353H7.22487L4.00488 18.2907C3.98021 18.1949 3.93625 18.105 3.8757 18.0266C3.81515 17.9483 3.73927 17.8831 3.65269 17.8351C2.49605 17.2335 1.26907 16.7781 0 16.4795L0.0445625 16.1934H6.049C6.85831 16.2236 7.51669 16.4795 7.74094 17.3477L9.05194 23.621V23.6138ZM38.3856 25.0139L39.8763 21.1887C39.8532 21.2247 40.1824 20.4024 40.3693 19.8849L40.6237 21.0594L41.4863 25.0053H38.3856V25.0139Z" fill="#221F20"/>
</svg>
