<svg width="1371" height="1051" viewBox="0 0 1371 1051" fill="none" xmlns="http://www.w3.org/2000/svg">
<mask id="path-1-inside-1_153_68" fill="white">
<path d="M0 0H1371V1051H0V0Z"/>
</mask>
<path d="M0 0H1371V1051H0V0Z" fill="#F5EAD9"/>
<path d="M1371 1049H0V1053H1371V1049Z" fill="black" mask="url(#path-1-inside-1_153_68)"/>
<path d="M959.358 120.836C953.919 125.208 940.843 128.519 934 128.115C938.83 131.35 952.86 137.616 955.736 142.672C960.566 151.164 962.981 163.295 962.981 173C965.799 167.743 969.985 149.951 973.849 145.098C977.713 140.246 991.962 138.224 998 137.82C990.755 135.393 985.925 135.393 978.679 129.328C970.686 122.636 970.226 107.087 971.434 99C969.019 104.257 965.396 115.984 959.358 120.836Z" fill="#9EC3D0"/>
<path d="M934 128.115L934.059 127.116C933.609 127.09 933.196 127.368 933.052 127.796C932.908 128.223 933.069 128.695 933.444 128.946L934 128.115ZM959.358 120.836L958.732 120.057L958.732 120.057L959.358 120.836ZM971.434 99L972.423 99.1477C972.497 98.6552 972.197 98.1837 971.719 98.0416C971.242 97.8995 970.733 98.1301 970.525 98.5825L971.434 99ZM978.679 129.328L978.037 130.095L978.037 130.095L978.679 129.328ZM998 137.82L998.067 138.817C998.543 138.786 998.931 138.421 998.992 137.947C999.053 137.474 998.77 137.023 998.318 136.871L998 137.82ZM973.849 145.098L973.067 144.475L973.067 144.475L973.849 145.098ZM962.981 173H961.981C961.981 173.458 962.293 173.858 962.738 173.97C963.182 174.082 963.646 173.877 963.863 173.472L962.981 173ZM955.736 142.672L956.605 142.178L956.605 142.178L955.736 142.672ZM933.941 129.113C937.515 129.324 942.613 128.569 947.471 127.231C952.317 125.895 957.104 123.931 959.985 121.616L958.732 120.057C956.173 122.113 951.703 123.99 946.94 125.302C942.189 126.611 937.328 127.31 934.059 127.116L933.941 129.113ZM959.985 121.616C963.196 119.035 965.691 114.705 967.661 110.493C968.654 108.37 969.53 106.239 970.305 104.322C971.085 102.391 971.752 100.704 972.343 99.4175L970.525 98.5825C969.909 99.9242 969.217 101.674 968.45 103.573C967.678 105.485 966.818 107.574 965.849 109.646C963.894 113.825 961.559 117.785 958.732 120.057L959.985 121.616ZM970.445 98.8523C969.828 102.987 969.638 109.002 970.62 114.853C971.598 120.676 973.769 126.522 978.037 130.095L979.321 128.561C975.596 125.443 973.541 120.168 972.593 114.522C971.649 108.903 971.833 103.101 972.423 99.1477L970.445 98.8523ZM978.037 130.095C985.475 136.322 990.639 136.409 997.682 138.768L998.318 136.871C990.87 134.378 986.374 134.465 979.321 128.561L978.037 130.095ZM997.933 136.822C994.871 137.027 989.741 137.64 984.874 138.819C982.441 139.408 980.045 140.146 977.997 141.057C975.969 141.96 974.181 143.076 973.067 144.475L974.631 145.721C975.449 144.694 976.891 143.738 978.81 142.884C980.709 142.039 982.978 141.336 985.345 140.763C990.078 139.617 995.091 139.017 998.067 138.817L997.933 136.822ZM973.067 144.475C972.002 145.812 970.972 147.954 969.989 150.392C968.997 152.857 968.015 155.726 967.073 158.585C966.126 161.458 965.225 164.304 964.378 166.781C963.527 169.271 962.76 171.295 962.1 172.528L963.863 173.472C964.611 172.077 965.424 169.905 966.271 167.429C967.122 164.94 968.037 162.049 968.972 159.21C969.912 156.357 970.878 153.54 971.845 151.14C972.822 148.713 973.764 146.811 974.631 145.721L973.067 144.475ZM963.981 173C963.981 163.173 961.543 150.859 956.605 142.178L954.867 143.167C959.589 151.469 961.981 163.417 961.981 173H963.981ZM956.605 142.178C955.78 140.727 954.224 139.286 952.406 137.92C950.565 136.536 948.352 135.155 946.104 133.846C943.855 132.537 941.543 131.284 939.511 130.167C937.463 129.04 935.721 128.064 934.556 127.284L933.444 128.946C934.694 129.783 936.518 130.803 938.548 131.919C940.595 133.045 942.876 134.281 945.098 135.575C947.32 136.869 949.456 138.205 951.205 139.519C952.978 140.851 954.254 142.089 954.867 143.167L956.605 142.178Z" fill="black"/>
<path d="M291.358 232.836C285.919 237.208 272.843 240.519 266 240.115C270.83 243.35 284.86 249.616 287.736 254.672C292.566 263.164 294.981 275.295 294.981 285C297.799 279.743 301.985 261.951 305.849 257.098C309.713 252.246 323.962 250.224 330 249.82C322.755 247.393 317.925 247.393 310.679 241.328C302.686 234.636 302.226 219.087 303.434 211C301.019 216.257 297.396 227.984 291.358 232.836Z" fill="#9EC3D0"/>
<path d="M266 240.115L266.059 239.116C265.609 239.09 265.196 239.368 265.052 239.796C264.908 240.223 265.069 240.695 265.444 240.946L266 240.115ZM291.358 232.836L290.732 232.057L290.732 232.057L291.358 232.836ZM303.434 211L304.423 211.148C304.497 210.655 304.197 210.184 303.719 210.042C303.242 209.899 302.733 210.13 302.525 210.583L303.434 211ZM310.679 241.328L310.037 242.095L310.037 242.095L310.679 241.328ZM330 249.82L330.067 250.817C330.543 250.786 330.931 250.421 330.992 249.947C331.053 249.474 330.77 249.023 330.318 248.871L330 249.82ZM305.849 257.098L305.067 256.475L305.067 256.475L305.849 257.098ZM294.981 285H293.981C293.981 285.458 294.293 285.858 294.738 285.97C295.182 286.082 295.646 285.877 295.863 285.472L294.981 285ZM287.736 254.672L288.605 254.178L288.605 254.178L287.736 254.672ZM265.941 241.113C269.515 241.324 274.613 240.569 279.471 239.231C284.317 237.895 289.104 235.931 291.985 233.616L290.732 232.057C288.173 234.113 283.703 235.99 278.94 237.302C274.189 238.611 269.328 239.31 266.059 239.116L265.941 241.113ZM291.985 233.616C295.196 231.035 297.691 226.705 299.661 222.493C300.654 220.37 301.53 218.239 302.305 216.322C303.085 214.391 303.752 212.704 304.343 211.417L302.525 210.583C301.909 211.924 301.217 213.674 300.45 215.573C299.678 217.485 298.818 219.574 297.849 221.646C295.894 225.825 293.559 229.785 290.732 232.057L291.985 233.616ZM302.445 210.852C301.828 214.987 301.638 221.002 302.62 226.853C303.598 232.676 305.769 238.522 310.037 242.095L311.321 240.561C307.596 237.443 305.541 232.168 304.593 226.522C303.649 220.903 303.833 215.101 304.423 211.148L302.445 210.852ZM310.037 242.095C317.475 248.322 322.639 248.409 329.682 250.768L330.318 248.871C322.87 246.378 318.374 246.465 311.321 240.561L310.037 242.095ZM329.933 248.822C326.871 249.027 321.741 249.64 316.874 250.819C314.441 251.408 312.045 252.146 309.997 253.057C307.969 253.96 306.181 255.076 305.067 256.475L306.631 257.721C307.449 256.694 308.891 255.738 310.81 254.884C312.709 254.039 314.978 253.336 317.345 252.763C322.078 251.617 327.091 251.017 330.067 250.817L329.933 248.822ZM305.067 256.475C304.002 257.812 302.972 259.954 301.989 262.392C300.997 264.857 300.015 267.726 299.073 270.585C298.126 273.458 297.225 276.304 296.378 278.781C295.527 281.271 294.76 283.295 294.1 284.528L295.863 285.472C296.611 284.077 297.424 281.905 298.271 279.429C299.122 276.94 300.037 274.049 300.972 271.21C301.912 268.357 302.878 265.54 303.845 263.14C304.822 260.713 305.764 258.811 306.631 257.721L305.067 256.475ZM295.981 285C295.981 275.173 293.543 262.859 288.605 254.178L286.867 255.167C291.589 263.469 293.981 275.417 293.981 285H295.981ZM288.605 254.178C287.78 252.727 286.224 251.286 284.406 249.92C282.565 248.536 280.352 247.155 278.104 245.846C275.855 244.537 273.543 243.284 271.511 242.167C269.463 241.04 267.721 240.064 266.556 239.284L265.444 240.946C266.694 241.783 268.518 242.803 270.548 243.919C272.595 245.045 274.876 246.281 277.098 247.575C279.32 248.869 281.456 250.205 283.205 251.519C284.978 252.851 286.254 254.089 286.867 255.167L288.605 254.178Z" fill="black"/>
<path d="M647.645 340.233C653.754 340.148 659.229 338.756 664.046 336.034C668.924 333.323 672.731 329.708 675.441 325.189L675.441 325.189L675.445 325.182C678.155 320.576 679.465 315.5 679.381 309.978L679.381 309.971L679.38 309.963C679.212 304.291 677.738 299.144 674.948 294.546C672.158 289.949 668.35 286.37 663.539 283.819C658.806 281.267 653.496 280 647.631 280C641.601 280 636.127 281.309 631.231 283.944L631.231 283.944L631.224 283.948C626.421 286.579 622.653 290.155 619.944 294.674C617.227 299.206 615.92 304.327 616.004 310.008L616.004 310.015L616.004 310.023C616.172 315.684 617.558 320.86 620.174 325.533L620.179 325.543L620.185 325.552C622.89 330.149 626.614 333.77 631.34 336.405L631.34 336.405L631.347 336.409C636.17 339.05 641.611 340.317 647.645 340.233ZM647.645 340.233L647.631 339.238L647.645 340.233C647.645 340.233 647.645 340.233 647.645 340.233ZM653.03 307.349L653.038 307.358L653.047 307.366C654.496 308.826 655.207 310.547 655.207 312.584C655.207 314.622 654.494 316.394 653.03 317.942C651.569 319.487 649.906 320.22 647.999 320.22C646.091 320.22 644.428 319.487 642.967 317.942C641.503 316.394 640.79 314.622 640.79 312.584C640.79 310.547 641.501 308.826 642.95 307.366L642.959 307.358L642.967 307.349C644.428 305.804 646.091 305.071 647.999 305.071C649.906 305.071 651.569 305.804 653.03 307.349Z" fill="#F8BE38" stroke="black" stroke-width="2"/>
<path d="M567.211 339.098L567.201 339.098C564.925 339.045 561.773 338.39 557.703 337.076C553.63 335.752 549.76 335.587 546.124 336.636C542.416 337.706 539.993 339.985 539.042 343.463C537.891 347.668 538.899 351.412 542.001 354.563C545.016 357.624 549.167 359.845 554.386 361.272C565.879 364.416 576.111 364.086 585.015 360.178C593.942 356.327 601.276 350.135 607.01 341.63C612.834 333.102 617.27 323.24 620.329 312.058C622.385 304.541 622.894 297.99 621.778 292.443C621.212 289.63 620.116 287.28 618.453 285.443C616.788 283.604 614.602 282.333 611.943 281.606C607.334 280.345 603.374 280.631 600.218 282.686L600.209 282.692L600.2 282.699C597.204 284.746 595.146 288.033 593.947 292.418L593.943 292.429L593.941 292.44L592.424 298.541L592.418 298.567L592.413 298.593C592.18 299.802 591.747 301.571 591.107 303.914C589.916 308.268 588.476 311.326 586.847 313.2C585.438 314.762 583.314 315.292 580.137 314.423C576.96 313.554 575.401 312.017 574.983 309.955C574.535 307.515 574.863 304.105 576.081 299.653C576.722 297.31 577.249 295.567 577.664 294.408L577.673 294.382L577.681 294.356L579.519 288.192L579.523 288.181L579.526 288.17C580.654 284.046 580.456 280.3 578.831 277.004C577.283 273.546 574.069 271.247 569.459 269.986C566.801 269.259 564.273 269.24 561.903 269.976C559.536 270.711 557.397 272.176 555.478 274.31L555.478 274.31L555.473 274.316C551.81 278.456 548.964 284.368 546.885 291.97C544.475 300.781 543.648 308.284 544.473 314.442L544.475 314.453L544.476 314.464C545.433 320.604 548.259 325.748 552.933 329.86L552.938 329.865L552.944 329.869C557.166 333.475 563.084 336.41 570.637 338.709C569.638 339.006 568.501 339.14 567.211 339.098Z" fill="#F8BE38" stroke="black" stroke-width="2"/>
<path d="M720.926 326.38L720.926 326.38L720.926 326.392C720.855 330.182 721.532 333.36 723.047 335.847C724.573 338.354 726.897 340.07 729.939 341.013C734.046 342.287 737.618 341.984 740.474 339.865L740.48 339.86L740.487 339.854C743.178 337.785 745.222 335.15 746.617 331.968C747.966 328.889 749.381 324.955 750.862 320.176C752.135 316.071 754.361 313.197 757.508 311.445C760.823 309.603 764.033 309.216 767.2 310.198C768.08 310.47 769.269 311.173 770.787 312.414L770.795 312.421L770.804 312.428C771.451 312.934 772.185 313.464 773.003 314.018L773.014 314.025L773.024 314.032C773.996 314.655 775.057 315.143 776.203 315.498C779.715 316.587 782.964 316.318 785.859 314.605C788.795 312.874 790.777 310.437 791.745 307.312C792.711 304.196 792.486 300.995 791.123 297.751C789.893 294.488 787.934 291.621 785.263 289.155C782.688 286.724 779.899 285.026 776.897 284.095C773.268 282.97 769.709 282.37 766.224 282.304C763.314 282.248 760.68 282.64 758.339 283.502C758.145 281.536 757.339 279.758 755.94 278.195C754.302 276.294 752.144 274.945 749.508 274.128C745.292 272.821 741.573 273.19 738.501 275.416L738.501 275.416L738.496 275.419C735.698 277.47 733.443 280.337 731.712 283.975L731.707 283.984L731.703 283.994C730.123 287.498 728.496 291.961 726.819 297.37C723.134 309.257 721.155 318.937 720.926 326.38Z" fill="#F8BE38" stroke="black" stroke-width="2"/>
<path d="M677.539 350.159L677.539 350.159L677.549 350.165C682.26 353.173 687.724 354.663 693.905 354.663C703.86 354.663 711.588 351.44 716.924 344.891L716.928 344.886C722.218 338.31 724.811 329.547 724.811 318.701C724.811 311.788 723.69 306.284 721.342 302.29C719.049 298.167 715.692 296 711.329 296C707.671 296 704.745 296.925 702.741 298.949C700.739 300.971 699.826 303.921 699.826 307.609C699.826 308.837 699.867 310.182 699.951 311.644L699.951 311.648C700.034 313.019 700.117 314.085 700.203 314.835C700.445 316.962 700.567 319.295 700.567 321.835C700.567 325.338 699.845 327.808 698.563 329.407L698.559 329.412C697.345 330.945 695.819 331.685 693.905 331.685C692.102 331.685 690.564 330.927 689.248 329.287C687.963 327.685 687.244 325.252 687.244 321.835C687.244 319.955 687.405 317.422 687.733 314.221C687.816 313.408 687.899 312.476 687.982 311.425L687.982 311.42C688.067 310.264 688.109 308.953 688.109 307.489C688.109 303.838 687.194 300.916 685.189 298.915C683.185 296.913 680.26 296 676.605 296C672.242 296 668.846 298.167 666.47 302.287C664.124 306.356 663 311.857 663 318.701C663 325.728 664.215 331.981 666.672 337.436L666.676 337.445L666.68 337.453C669.224 342.832 672.844 347.077 677.539 350.159Z" fill="#F8BE38" stroke="black" stroke-width="2"/>
<path d="M824.38 213.39L824.392 213.395L824.405 213.399C828.878 214.885 835.024 216.251 842.818 217.505C854.074 219.315 862.534 219.817 868.116 218.938L868.116 218.938L868.128 218.936C871.052 218.439 873.445 217.33 875.228 215.551C877.011 213.771 878.109 211.397 878.574 208.504C879.163 204.843 878.513 201.771 876.437 199.468C874.568 197.174 871.826 195.55 868.307 194.536C865.651 193.686 862.263 192.885 858.153 192.128C864.451 189.794 870.11 186.738 875.124 182.956C881.263 178.421 884.913 173.111 885.894 167.012C886.496 163.265 886.295 159.925 885.227 157.033C884.155 154.131 882.234 151.746 879.509 149.879C874.189 146.119 865.558 143.333 853.759 141.435C842.484 139.622 833.703 139.341 827.493 140.674L827.493 140.674L827.486 140.675C824.392 141.36 821.878 142.591 820.017 144.421C818.148 146.258 817 148.636 816.54 151.494C815.81 156.036 816.322 159.733 818.338 162.376L818.353 162.397L818.37 162.416C820.432 164.851 823.38 166.567 827.129 167.618L827.132 167.619C830.371 168.516 835.025 169.476 841.077 170.502C832.183 174.926 825.498 178.662 821.047 181.709C816.059 185.124 813.071 189.147 812.321 193.808C811.487 198.992 812.074 203.262 814.285 206.462L814.297 206.48L814.31 206.497C816.588 209.511 819.973 211.793 824.38 213.39Z" fill="#F8BE38" stroke="black" stroke-width="2"/>
<path d="M693.687 199.137L693.688 199.139C694.081 200.966 694.635 204.068 695.353 208.46C696.338 214.493 697.891 219.005 700.11 221.843C702.466 224.857 706.067 225.858 710.601 225.118C714.969 224.404 717.955 222.312 719.224 218.722C720.419 215.34 720.558 210.566 719.761 204.505L719.759 204.49L719.757 204.474C719.468 202.705 719.309 201.434 719.268 200.636L719.265 200.581L719.256 200.526C718.539 196.138 718.282 193.075 718.433 191.263L718.433 191.263L718.433 191.252C718.497 190.368 718.729 189.788 719.038 189.414C719.336 189.053 719.784 188.787 720.481 188.674C721.561 188.497 722.384 188.597 723.011 188.882C723.627 189.161 724.148 189.661 724.558 190.468C725.474 192.272 726.317 195.36 727.047 199.829C727.888 204.98 728.676 208.922 729.412 211.637L729.417 211.656L729.423 211.675C730.273 214.384 731.66 216.596 733.606 218.266L733.618 218.275L733.629 218.285C735.819 220.052 738.871 220.501 742.564 219.898C745.388 219.437 747.746 218.363 749.579 216.636C751.41 214.91 752.654 212.593 753.353 209.748C754.722 204.173 754.713 197.309 753.388 189.195C752.195 181.889 749.872 175.422 746.406 169.807C743.018 164.084 738.77 159.824 733.65 157.078C728.58 154.209 723.022 153.272 717.019 154.253C712.986 154.911 709.702 156.186 707.235 158.134C705.205 159.697 703.303 161.83 701.519 164.504C699.91 162.524 697.782 161.105 695.165 160.248C692.149 159.125 689.053 158.82 685.896 159.336C683.435 159.738 681.488 160.248 680.115 160.894C679.079 161.383 678.068 161.99 677.083 162.712C676.103 161.57 674.822 160.741 673.273 160.219C671.379 159.581 669.368 159.444 667.26 159.788C665.837 160.021 664.336 160.526 662.761 161.282C658.314 163.363 655.695 167.196 654.857 172.587L654.857 172.587L654.856 172.599C654.118 177.758 654.487 184.726 655.913 193.456C658.01 206.296 660.864 215.843 664.53 221.997C666.368 225.082 668.443 227.369 670.783 228.772C673.144 230.188 675.722 230.67 678.474 230.221C681.972 229.649 684.619 228.371 686.166 226.221L686.174 226.209L686.182 226.198C687.623 224.069 688.309 221.6 688.268 218.833L688.268 218.828C688.213 216.081 687.811 212.446 687.075 207.941C686.483 204.315 686.092 201.627 685.897 199.862C685.79 198.096 686.049 196.72 686.596 195.673L686.605 195.656L686.613 195.639C687.086 194.645 687.973 193.983 689.499 193.733C690.102 193.635 690.56 193.694 690.917 193.847C691.27 193.998 691.601 194.274 691.899 194.742L691.915 194.767L691.932 194.791C692.695 195.848 693.293 197.281 693.687 199.137Z" fill="#F8BE38" stroke="black" stroke-width="2"/>
<path d="M463.309 184.919L463.308 184.919L463.319 184.926C468.835 188.644 475.271 190.539 482.591 190.639C494.386 190.799 503.566 187.011 509.969 179.175L509.973 179.171C516.329 171.295 519.544 160.718 519.723 147.545C519.837 139.145 518.598 132.469 515.901 127.617C513.277 122.619 509.383 119.965 504.262 119.895C499.938 119.837 496.498 120.911 494.133 123.295C491.774 125.672 490.651 129.182 490.59 133.636C490.57 135.126 490.598 136.761 490.672 138.54L490.672 138.543C490.748 140.214 490.829 141.509 490.918 142.417C491.172 145.022 491.278 147.875 491.236 150.978C491.178 155.274 490.273 158.333 488.678 160.315L488.674 160.32C487.166 162.217 485.288 163.117 482.965 163.085C480.768 163.055 478.903 162.079 477.331 160.014C475.788 157.986 474.968 154.95 475.025 150.757C475.056 148.456 475.291 145.363 475.734 141.466C475.846 140.479 475.96 139.346 476.076 138.069L476.076 138.064C476.195 136.665 476.266 135.075 476.291 133.295C476.35 128.888 475.321 125.383 473.025 122.967C470.724 120.547 467.316 119.394 462.994 119.335C457.874 119.266 453.862 121.812 451.006 126.733C448.178 131.603 446.755 138.24 446.642 146.553C446.526 155.085 447.862 162.687 450.677 169.337L450.681 169.346L450.684 169.354C453.604 175.911 457.81 181.11 463.309 184.919Z" fill="#F8BE38" stroke="black" stroke-width="2"/>
<path d="M628.886 162.664L628.894 162.662L628.903 162.66C632.206 161.853 634.866 160.392 636.812 158.235C638.758 156.077 639.926 153.292 640.366 149.947C640.794 146.681 640.456 143.809 639.267 141.389C638.074 138.96 636.07 137.08 633.338 135.727C628.314 133.197 620.428 131.288 609.775 129.95C611.281 119.737 611.37 111.418 609.982 105.04C609.308 101.666 607.85 98.9414 605.565 96.9405C603.286 94.9442 600.263 93.7365 596.573 93.252C592.925 92.7729 589.654 93.2259 586.808 94.6707C583.965 96.1142 581.626 98.5063 579.77 101.77C576.263 107.847 573.688 115.608 572.014 125.017C563.209 124.056 556.163 124.379 550.947 126.067C548.167 126.907 545.931 128.44 544.283 130.668C542.642 132.886 541.623 135.738 541.173 139.164C540.805 141.966 541.17 144.5 542.324 146.72C543.475 148.935 545.371 150.756 547.933 152.208L547.945 152.215L547.957 152.222C552.903 154.843 559.47 156.826 567.617 158.201C565.085 177.776 564.53 191.435 566.039 199.047L566.041 199.053C567.527 206.328 571.224 212.478 577.096 217.48L577.096 217.481L577.107 217.489C582.966 222.342 589.429 225.247 596.483 226.173C604.033 227.165 610.247 226.786 615.053 224.936C619.914 223.065 622.785 219.832 623.389 215.233C623.89 211.421 623.488 208.102 622.092 205.339C620.711 202.45 618.511 200.447 615.528 199.375L615.512 199.369L615.496 199.364C614.191 198.945 612.99 198.599 611.896 198.328C610.945 197.954 610.039 197.647 609.18 197.406L609.157 197.4L609.134 197.395C606.649 196.824 604.878 196.172 603.751 195.473C602.949 194.922 602.289 193.785 601.971 191.75L601.968 191.733L601.965 191.715C601.406 188.817 601.545 183.929 602.462 176.95C603.276 170.752 603.935 166.123 604.438 163.055C614.473 164.189 622.636 164.075 628.886 162.664Z" fill="#F8BE38" stroke="black" stroke-width="2"/>
<path d="M506.575 210.887L506.562 210.876L506.55 210.866C505.375 209.914 504.183 209.16 502.974 208.616C501.678 208.033 500.048 207.772 498.139 207.772C494.702 207.772 491.774 208.68 489.428 210.558C487.115 212.392 486 215.02 486 218.289C486 223.398 488.955 227.46 494.451 230.495C499.943 233.527 507.251 235 516.296 235C526.676 235 535.066 233.12 541.38 229.266C547.845 225.382 551.169 219.941 551.169 213.002C551.169 207.598 549.226 203.27 545.305 200.14C541.622 197.12 536.771 194.653 530.794 192.715L530.794 192.715L530.786 192.712C529.751 192.386 529.076 191.996 528.672 191.596C528.293 191.221 528.129 190.819 528.129 190.343C528.129 189.829 528.306 189.46 528.681 189.15L528.716 189.121L528.748 189.089C529.183 188.659 529.646 188.472 530.181 188.472C530.986 188.472 531.663 188.605 532.231 188.846L532.253 188.855L532.274 188.863C533.041 189.148 533.755 189.478 534.418 189.853L534.442 189.867L534.467 189.879C535.694 190.487 536.681 190.95 537.419 191.263L537.492 191.294L537.57 191.313C538.494 191.542 539.651 191.645 541.014 191.645C544.521 191.645 547.415 190.803 549.579 189.004C551.896 187.164 553 184.481 553 181.128C553 177.496 551.489 174.232 548.59 171.36C545.708 168.403 541.797 166.117 536.912 164.47C532.112 162.818 526.762 162 520.873 162C514.052 162 507.965 163.125 502.633 165.402C497.428 167.567 493.314 170.476 490.342 174.154L490.34 174.157C487.473 177.731 486 181.572 486 185.66C486 189.319 487.201 192.747 489.553 195.923C491.918 199.115 495.526 201.823 500.297 204.083C501.156 204.508 502.869 205.226 505.396 206.226C508.132 207.33 509.967 208.249 510.981 208.98L511.007 208.998L511.033 209.014C511.839 209.522 512.244 210.247 512.244 211.34C512.244 211.829 512.091 212.064 511.866 212.223C511.577 212.428 511.021 212.606 510.04 212.606C509.367 212.606 508.823 212.485 508.381 212.273C507.951 212.013 507.353 211.561 506.575 210.887Z" fill="#F8BE38" stroke="black" stroke-width="2"/>
<path d="M644.903 204.199C651.255 204.112 656.948 202.674 661.955 199.864C667.028 197.065 670.986 193.332 673.804 188.666L673.804 188.666L673.808 188.659C676.626 183.903 677.989 178.661 677.901 172.957L677.901 172.949L677.901 172.942C677.726 167.082 676.193 161.767 673.291 157.018C670.39 152.271 666.429 148.576 661.428 145.943C656.508 143.308 650.987 142 644.889 142C638.618 142 632.927 143.351 627.837 146.072L627.837 146.072L627.831 146.075C622.836 148.792 618.919 152.484 616.102 157.15C613.276 161.83 611.916 167.119 612.004 172.987L612.004 172.994L612.004 173.002C612.179 178.85 613.621 184.197 616.342 189.023L616.347 189.032L616.352 189.042C619.166 193.789 623.038 197.527 627.952 200.248L627.958 200.251C632.972 202.978 638.628 204.286 644.903 204.199ZM644.903 204.199L644.889 203.199L644.903 204.199C644.903 204.199 644.903 204.199 644.903 204.199ZM650.542 170.218L650.55 170.227L650.559 170.235C652.074 171.751 652.817 173.538 652.817 175.65C652.817 177.764 652.072 179.603 650.542 181.21C649.014 182.814 647.272 183.578 645.272 183.578C643.271 183.578 641.529 182.814 640.001 181.21C638.471 179.603 637.726 177.764 637.726 175.65C637.726 173.538 638.469 171.751 639.984 170.235L639.993 170.227L640.001 170.218C641.529 168.614 643.271 167.85 645.272 167.85C647.272 167.85 649.014 168.614 650.542 170.218Z" fill="#F8BE38" stroke="black" stroke-width="2"/>
<path d="M384.637 238.742L384.644 238.743L384.652 238.744C394.184 239.749 403.972 238.358 414.004 234.599C421.494 231.791 427.795 227.908 432.884 222.937C437.953 217.985 441.416 212.673 443.219 206.996C445.122 201.288 445.195 195.961 443.359 191.063C441.81 186.929 439.3 183.96 435.799 182.274C432.236 180.474 428.285 180.431 424.035 182.024C421.303 183.048 419.105 184.411 417.495 186.144L417.487 186.152L417.479 186.161C416.038 187.787 414.589 189.938 413.128 192.589C411.428 195.603 409.657 198.054 407.822 199.961L407.816 199.967L407.81 199.974C406.151 201.76 403.488 203.383 399.721 204.795C395.048 206.546 390.733 206.174 386.679 203.707C382.624 201.063 379.573 197.083 377.554 191.695C375.706 186.765 375.752 182.059 377.656 177.522C379.628 172.835 382.842 169.69 387.319 168.012C390.974 166.642 393.826 166.311 395.956 166.835L395.985 166.842L396.015 166.848C398.347 167.277 401.013 168.318 404.022 170.015C407.144 171.776 409.965 172.938 412.475 173.459C415.111 174.007 418.274 173.526 421.897 172.168C426.881 170.3 430.17 167.117 431.594 162.599C433.085 158.15 432.943 153.584 431.203 148.941C428.521 141.786 424.112 136.027 417.987 131.689C411.963 127.314 404.814 124.803 396.574 124.131C388.282 123.357 379.675 124.655 370.765 127.994C361.294 131.544 353.655 137.228 347.875 145.044C342.11 152.839 338.609 161.667 337.374 171.508C336.139 181.348 337.295 190.997 340.835 200.444C345.199 212.086 351.215 221.146 358.919 227.562L358.923 227.565C366.566 233.86 375.143 237.593 384.637 238.742Z" fill="#F8BE38" stroke="black" stroke-width="2"/>
<path d="M869.943 224.219L869.947 224.229L869.951 224.24C872.196 230.247 875.964 235.317 881.23 239.443C886.5 243.572 892.914 246.365 900.441 247.843C908.976 249.52 915.558 249.674 920.049 248.132L920.058 248.129L920.067 248.125C924.49 246.509 927.29 243.98 927.993 240.402C928.419 238.231 927.955 236.281 926.566 234.66C925.296 233.08 923.42 232.1 921.065 231.637C919.881 231.404 918.624 231.325 917.3 231.391C914.029 231.46 911.04 231.225 908.326 230.692C902.927 229.631 899.187 227.292 896.962 223.716C899.915 225.085 903.383 226.153 907.352 226.933C915.293 228.493 922.514 228.112 928.982 225.739L928.986 225.737C935.741 223.22 939.874 217.967 941.404 210.179C942.346 205.386 941.887 200.546 940.054 195.678C938.231 190.684 935.045 186.356 930.534 182.695C926.001 179.016 920.452 176.547 913.919 175.264C906.664 173.839 899.81 174.246 893.381 176.509C886.977 178.764 881.57 182.394 877.175 187.395L877.175 187.395L877.166 187.406C872.873 192.429 870.072 198.281 868.763 204.942C867.436 211.7 867.823 218.132 869.943 224.219ZM912.487 207.669L912.475 207.673L912.462 207.678C910.869 208.286 909.066 208.413 907.019 208.011C905.239 207.662 903.675 207.065 902.314 206.232C901.201 205.411 900.373 204.377 899.82 203.112C900.204 201.515 901.131 200.17 902.668 199.063C904.341 197.865 906.366 197.464 908.84 197.95C911.394 198.451 913.044 199.414 913.988 200.713L913.999 200.727L914.009 200.74C915.095 202.132 915.444 203.539 915.152 205.022C914.923 206.189 914.139 207.089 912.487 207.669Z" fill="#F8BE38" stroke="black" stroke-width="2"/>
<mask id="path-19-outside-2_153_68" maskUnits="userSpaceOnUse" x="759" y="102" width="45" height="132" fill="black">
<rect fill="white" x="759" y="102" width="45" height="132"/>
<path fill-rule="evenodd" clip-rule="evenodd" d="M766.957 140.571C770.929 144.674 775.776 146.725 781.5 146.725C787.107 146.725 791.896 144.674 795.868 140.571C799.956 136.352 802 131.253 802 125.275C802 119.414 799.956 114.432 795.868 110.33C791.896 106.11 787.107 104 781.5 104C775.776 104 770.929 106.11 766.957 110.33C762.986 114.432 761 119.414 761 125.275C761 131.253 762.986 136.352 766.957 140.571ZM770.812 227.956C773.148 230.652 776.711 232 781.5 232C785.939 232 789.326 230.769 791.662 228.308C793.999 225.846 795.576 222.095 796.393 217.055C797.328 212.015 797.795 205.158 797.795 196.484C797.795 186.169 797.386 178.256 796.568 172.747C795.868 167.121 794.349 162.96 792.013 160.264C789.793 157.451 786.289 156.044 781.5 156.044C777.061 156.044 773.674 157.275 771.338 159.736C769.001 162.198 767.366 165.949 766.432 170.989C765.614 176.029 765.205 182.886 765.205 191.56C765.205 201.875 765.556 209.846 766.256 215.473C767.074 220.982 768.593 225.143 770.812 227.956ZM787 127C791.971 127 796 122.971 796 118C796 113.029 791.971 109 787 109C782.029 109 778 113.029 778 118C778 122.971 782.029 127 787 127Z"/>
</mask>
<path fill-rule="evenodd" clip-rule="evenodd" d="M766.957 140.571C770.929 144.674 775.776 146.725 781.5 146.725C787.107 146.725 791.896 144.674 795.868 140.571C799.956 136.352 802 131.253 802 125.275C802 119.414 799.956 114.432 795.868 110.33C791.896 106.11 787.107 104 781.5 104C775.776 104 770.929 106.11 766.957 110.33C762.986 114.432 761 119.414 761 125.275C761 131.253 762.986 136.352 766.957 140.571ZM770.812 227.956C773.148 230.652 776.711 232 781.5 232C785.939 232 789.326 230.769 791.662 228.308C793.999 225.846 795.576 222.095 796.393 217.055C797.328 212.015 797.795 205.158 797.795 196.484C797.795 186.169 797.386 178.256 796.568 172.747C795.868 167.121 794.349 162.96 792.013 160.264C789.793 157.451 786.289 156.044 781.5 156.044C777.061 156.044 773.674 157.275 771.338 159.736C769.001 162.198 767.366 165.949 766.432 170.989C765.614 176.029 765.205 182.886 765.205 191.56C765.205 201.875 765.556 209.846 766.256 215.473C767.074 220.982 768.593 225.143 770.812 227.956ZM787 127C791.971 127 796 122.971 796 118C796 113.029 791.971 109 787 109C782.029 109 778 113.029 778 118C778 122.971 782.029 127 787 127Z" fill="#F8BE38"/>
<path d="M766.957 140.571L765.501 141.942L765.51 141.952L765.52 141.963L766.957 140.571ZM795.868 140.571L794.431 139.18L794.431 139.18L795.868 140.571ZM795.868 110.33L794.411 111.7L794.431 111.721L794.451 111.741L795.868 110.33ZM766.957 110.33L768.394 111.721L768.404 111.711L768.414 111.7L766.957 110.33ZM770.812 227.956L769.242 229.195L769.27 229.231L769.301 229.266L770.812 227.956ZM791.662 228.308L790.212 226.931L790.212 226.931L791.662 228.308ZM796.393 217.055L794.427 216.69L794.423 216.712L794.419 216.735L796.393 217.055ZM796.568 172.747L794.584 172.994L794.587 173.018L794.59 173.041L796.568 172.747ZM792.013 160.264L790.443 161.502L790.471 161.539L790.501 161.574L792.013 160.264ZM771.338 159.736L772.788 161.113L772.788 161.113L771.338 159.736ZM766.432 170.989L764.465 170.624L764.461 170.647L764.457 170.669L766.432 170.989ZM766.256 215.473L764.272 215.72L764.275 215.743L764.278 215.766L766.256 215.473ZM781.5 144.725C776.317 144.725 771.988 142.893 768.394 139.18L765.52 141.963C769.87 146.455 775.236 148.725 781.5 148.725V144.725ZM794.431 139.18C790.828 142.902 786.554 144.725 781.5 144.725V148.725C787.66 148.725 792.964 146.446 797.305 141.963L794.431 139.18ZM800 125.275C800 130.743 798.151 135.34 794.431 139.18L797.304 141.963C801.761 137.363 804 131.762 804 125.275H800ZM794.451 111.741C798.161 115.464 800 119.936 800 125.275H804C804 118.892 801.751 113.4 797.284 108.918L794.451 111.741ZM781.5 106C786.535 106 790.803 107.867 794.411 111.7L797.324 108.959C792.989 104.353 787.679 102 781.5 102V106ZM768.414 111.7C772.013 107.877 776.336 106 781.5 106V102C775.217 102 769.845 104.343 765.501 108.959L768.414 111.7ZM763 125.275C763 119.918 764.794 115.439 768.394 111.721L765.52 108.939C761.177 113.425 759 118.91 759 125.275H763ZM768.414 139.201C764.803 135.365 763 130.761 763 125.275H759C759 131.744 761.168 137.339 765.501 141.942L768.414 139.201ZM781.5 230C777.081 230 774.161 228.767 772.323 226.646L769.301 229.266C772.135 232.537 776.34 234 781.5 234V230ZM790.212 226.931C788.36 228.882 785.567 230 781.5 230V234C786.31 234 790.293 232.656 793.113 229.684L790.212 226.931ZM794.419 216.735C793.635 221.566 792.164 224.874 790.212 226.931L793.113 229.684C795.833 226.818 797.516 222.624 798.367 217.375L794.419 216.735ZM795.795 196.484C795.795 205.107 795.329 211.825 794.427 216.69L798.36 217.42C799.327 212.205 799.795 205.208 799.795 196.484H795.795ZM794.59 173.041C795.386 178.403 795.795 186.199 795.795 196.484H799.795C799.795 186.138 799.386 178.11 798.547 172.454L794.59 173.041ZM790.501 161.574C792.466 163.841 793.905 167.549 794.584 172.994L798.553 172.5C797.83 166.693 796.232 162.078 793.524 158.954L790.501 161.574ZM781.5 158.044C785.898 158.044 788.721 159.32 790.443 161.502L793.583 159.025C790.866 155.581 786.68 154.044 781.5 154.044V158.044ZM772.788 161.113C774.64 159.162 777.433 158.044 781.5 158.044V154.044C776.69 154.044 772.707 155.388 769.887 158.359L772.788 161.113ZM768.398 171.354C769.296 166.512 770.822 163.185 772.788 161.113L769.887 158.359C767.181 161.21 765.437 165.385 764.465 170.624L768.398 171.354ZM767.205 191.56C767.205 182.931 767.613 176.196 768.406 171.309L764.457 170.669C763.615 175.863 763.205 182.842 763.205 191.56H767.205ZM768.241 215.225C767.556 209.722 767.205 201.848 767.205 191.56H763.205C763.205 201.903 763.556 209.971 764.272 215.72L768.241 215.225ZM772.382 226.717C770.467 224.29 769.027 220.517 768.235 215.179L764.278 215.766C765.121 221.446 766.718 225.996 769.242 229.195L772.382 226.717ZM794 118C794 121.866 790.866 125 787 125V129C793.075 129 798 124.075 798 118H794ZM787 111C790.866 111 794 114.134 794 118H798C798 111.925 793.075 107 787 107V111ZM780 118C780 114.134 783.134 111 787 111V107C780.925 107 776 111.925 776 118H780ZM787 125C783.134 125 780 121.866 780 118H776C776 124.075 780.925 129 787 129V125Z" fill="black" mask="url(#path-19-outside-2_153_68)"/>
<path d="M143.034 369.042L183.336 351.664L165.958 391.966L165.55 392.911L166.507 393.291L207.292 409.5L166.507 425.709L165.55 426.089L165.958 427.034L183.336 467.336L143.034 449.958L142.089 449.55L141.709 450.507L125.5 491.292L109.291 450.507L108.911 449.55L107.966 449.958L67.6641 467.336L85.0423 427.034L85.4499 426.089L84.4934 425.709L43.7076 409.5L84.4934 393.291L85.4499 392.911L85.0423 391.966L67.6641 351.664L107.966 369.042L108.911 369.45L109.291 368.493L125.5 327.708L141.709 368.493L142.089 369.45L143.034 369.042Z" fill="#B6E2F2" stroke="black" stroke-width="2"/>
<circle cx="1037" cy="109" r="10" fill="#F8BE38" stroke="black" stroke-width="2"/>
<circle cx="128" cy="535" r="10" fill="#F8BE38" stroke="black" stroke-width="2"/>
<path d="M1049.5 207C1042 189 1034 170.5 1014 168.5C1065 164 1096 190 1097 211.5C1098 233 1057 225 1049.5 207Z" fill="#F892CA" stroke="black" stroke-width="2"/>
<path d="M224.648 180.013C227.342 159.252 274.055 152.381 295.51 163.546C273.942 167.913 275.273 188.461 256.111 198.414C236.949 208.367 221.954 200.773 224.648 180.013Z" fill="#F892CA" stroke="black" stroke-width="2"/>
<path d="M268.646 122.743C277.777 116.846 296.171 133.052 298.943 145.301C289.978 138.218 282.281 145.639 271.909 141.384C261.536 137.129 259.515 128.639 268.646 122.743Z" fill="#F892CA" stroke="black" stroke-width="2"/>
<path d="M1307.11 537.318L1272.65 513.079C1244.99 530.869 1241.19 567.632 1238.24 589.234C1235.28 610.837 1219.9 609.6 1200.68 621.024C1181.47 632.448 1193.88 662.543 1190.06 681.23C1187 696.179 1170.39 700.904 1163.8 708.544L1200.55 725.717C1205.78 722.924 1218.02 713.343 1225.11 697.366C1233.97 677.394 1217.64 660.289 1229.09 646.719C1240.53 633.149 1245.95 644.901 1263.66 628.041C1281.36 611.181 1272.18 599.61 1277.57 577.676C1281.88 560.128 1299.06 543.459 1307.11 537.318Z" fill="#B6E2F2" stroke="black" stroke-width="2"/>
<path d="M1260.36 714.937L1285.8 662.094L1338.64 687.529L1313.21 740.372L1260.36 714.937Z" fill="#F892CA" stroke="black" stroke-width="2"/>
<path d="M1338 689L1262 715L1313.5 740.5L1338 689Z" fill="#F8BE38" stroke="black" stroke-width="2"/>
<mask id="path-30-inside-3_153_68" fill="white">
<path d="M156.484 585.28C150.09 589.469 142.933 592.357 135.422 593.78C127.912 595.203 120.195 595.132 112.711 593.572C105.228 592.013 98.1253 588.994 91.8085 584.69C85.4917 580.385 80.0847 574.878 75.896 568.484C71.7074 562.09 68.8193 554.933 67.3965 547.422C65.9738 539.912 66.0442 532.194 67.6039 524.711C69.1636 517.228 72.182 510.125 76.4867 503.808C80.7914 497.492 86.2981 492.084 92.6925 487.896L111.7 516.913C109.116 518.605 106.891 520.79 105.151 523.342C103.412 525.895 102.192 528.765 101.562 531.789C100.932 534.813 100.903 537.931 101.478 540.966C102.053 544.001 103.22 546.893 104.913 549.477C106.605 552.06 108.79 554.286 111.343 556.025C113.895 557.764 116.765 558.984 119.789 559.614C122.813 560.245 125.931 560.273 128.966 559.698C132.001 559.123 134.893 557.956 137.477 556.264L156.484 585.28Z"/>
</mask>
<path d="M156.484 585.28C150.09 589.469 142.933 592.357 135.422 593.78C127.912 595.203 120.195 595.132 112.711 593.572C105.228 592.013 98.1253 588.994 91.8085 584.69C85.4917 580.385 80.0847 574.878 75.896 568.484C71.7074 562.09 68.8193 554.933 67.3965 547.422C65.9738 539.912 66.0442 532.194 67.6039 524.711C69.1636 517.228 72.182 510.125 76.4867 503.808C80.7914 497.492 86.2981 492.084 92.6925 487.896L111.7 516.913C109.116 518.605 106.891 520.79 105.151 523.342C103.412 525.895 102.192 528.765 101.562 531.789C100.932 534.813 100.903 537.931 101.478 540.966C102.053 544.001 103.22 546.893 104.913 549.477C106.605 552.06 108.79 554.286 111.343 556.025C113.895 557.764 116.765 558.984 119.789 559.614C122.813 560.245 125.931 560.273 128.966 559.698C132.001 559.123 134.893 557.956 137.477 556.264L156.484 585.28Z" fill="#F892CA" stroke="black" stroke-width="4" mask="url(#path-30-inside-3_153_68)"/>
</svg>
