<svg width="421" height="217" viewBox="0 0 421 217" fill="none" xmlns="http://www.w3.org/2000/svg">
<mask id="path-1-inside-1_142_3" fill="white">
<path d="M107 111.5C107 120.679 104.638 129.703 100.142 137.706C95.6463 145.708 89.1671 152.419 81.3276 157.193C73.4881 161.968 64.5521 164.645 55.3789 164.967C46.2057 165.289 37.1038 163.246 28.9485 159.034C20.7933 154.822 13.8589 148.582 8.81219 140.915C3.76551 133.248 0.776288 124.412 0.131971 115.255C-0.512345 106.099 1.20992 96.9312 5.13314 88.6331C9.05637 80.3349 15.0486 73.1856 22.5336 67.8728L41.9031 95.1616C39.1 97.1513 36.8559 99.8287 35.3866 102.936C33.9174 106.044 33.2724 109.477 33.5137 112.906C33.755 116.335 34.8744 119.645 36.7644 122.516C38.6544 125.387 41.2513 127.724 44.3055 129.301C47.3596 130.879 50.7683 131.644 54.2036 131.523C57.639 131.403 60.9855 130.4 63.9214 128.612C66.8573 126.824 69.2838 124.311 70.9676 121.314C72.6513 118.317 73.5357 114.937 73.5357 111.5H107Z"/>
</mask>
<path d="M107 111.5C107 120.679 104.638 129.703 100.142 137.706C95.6463 145.708 89.1671 152.419 81.3276 157.193C73.4881 161.968 64.5521 164.645 55.3789 164.967C46.2057 165.289 37.1038 163.246 28.9485 159.034C20.7933 154.822 13.8589 148.582 8.81219 140.915C3.76551 133.248 0.776288 124.412 0.131971 115.255C-0.512345 106.099 1.20992 96.9312 5.13314 88.6331C9.05637 80.3349 15.0486 73.1856 22.5336 67.8728L41.9031 95.1616C39.1 97.1513 36.8559 99.8287 35.3866 102.936C33.9174 106.044 33.2724 109.477 33.5137 112.906C33.755 116.335 34.8744 119.645 36.7644 122.516C38.6544 125.387 41.2513 127.724 44.3055 129.301C47.3596 130.879 50.7683 131.644 54.2036 131.523C57.639 131.403 60.9855 130.4 63.9214 128.612C66.8573 126.824 69.2838 124.311 70.9676 121.314C72.6513 118.317 73.5357 114.937 73.5357 111.5H107Z" fill="#F892CA" stroke="black" stroke-width="4" mask="url(#path-1-inside-1_142_3)"/>
<mask id="path-2-inside-2_142_3" fill="white">
<path d="M95.9441 55.2106C106.801 46.6141 120.569 42.5624 134.352 43.9078C148.135 45.2531 160.859 51.8905 169.849 62.4244C178.839 72.9582 183.394 86.5676 182.557 100.391C181.719 114.214 175.554 127.174 165.358 136.545L142.713 111.906C146.531 108.397 148.84 103.543 149.154 98.3666C149.467 93.1898 147.762 88.0931 144.395 84.1482C141.028 80.2033 136.263 77.7176 131.101 77.2137C125.939 76.7099 120.783 78.2272 116.717 81.4467L95.9441 55.2106Z"/>
</mask>
<path d="M95.9441 55.2106C106.801 46.6141 120.569 42.5624 134.352 43.9078C148.135 45.2531 160.859 51.8905 169.849 62.4244C178.839 72.9582 183.394 86.5676 182.557 100.391C181.719 114.214 175.554 127.174 165.358 136.545L142.713 111.906C146.531 108.397 148.84 103.543 149.154 98.3666C149.467 93.1898 147.762 88.0931 144.395 84.1482C141.028 80.2033 136.263 77.7176 131.101 77.2137C125.939 76.7099 120.783 78.2272 116.717 81.4467L95.9441 55.2106Z" fill="#B6E2F2" stroke="black" stroke-width="4" mask="url(#path-2-inside-2_142_3)"/>
<mask id="path-3-inside-3_142_3" fill="white">
<path d="M210.266 172.37C207.183 158.927 209.412 144.812 216.486 132.972C223.56 121.132 234.934 112.481 248.234 108.826C261.533 105.17 275.73 106.792 287.862 113.353C299.994 119.914 309.124 130.907 313.345 144.038L281.487 154.28C279.906 149.363 276.487 145.246 271.943 142.789C267.4 140.332 262.083 139.724 257.103 141.093C252.122 142.462 247.863 145.702 245.213 150.136C242.564 154.57 241.729 159.856 242.884 164.891L210.266 172.37Z"/>
</mask>
<path d="M210.266 172.37C207.183 158.927 209.412 144.812 216.486 132.972C223.56 121.132 234.934 112.481 248.234 108.826C261.533 105.17 275.73 106.792 287.862 113.353C299.994 119.914 309.124 130.907 313.345 144.038L281.487 154.28C279.906 149.363 276.487 145.246 271.943 142.789C267.4 140.332 262.083 139.724 257.103 141.093C252.122 142.462 247.863 145.702 245.213 150.136C242.564 154.57 241.729 159.856 242.884 164.891L210.266 172.37Z" fill="#F5EAD9" stroke="black" stroke-width="4" mask="url(#path-3-inside-3_142_3)"/>
<mask id="path-4-inside-4_142_3" fill="white">
<path d="M409.45 62.9055C410.003 77.0838 404.901 90.9011 395.266 101.318C385.632 111.734 372.254 117.897 358.075 118.45C343.897 119.003 330.08 113.901 319.663 104.266C309.247 94.6318 303.084 81.2539 302.531 67.0756L335.97 65.7714C336.177 71.0812 338.485 76.0912 342.386 79.6993C346.287 83.3075 351.462 85.2182 356.771 85.0111C362.081 84.804 367.091 82.4961 370.699 78.595C374.307 74.694 376.218 69.5195 376.011 64.2097L409.45 62.9055Z"/>
</mask>
<path d="M409.45 62.9055C410.003 77.0838 404.901 90.9011 395.266 101.318C385.632 111.734 372.254 117.897 358.075 118.45C343.897 119.003 330.08 113.901 319.663 104.266C309.247 94.6318 303.084 81.2539 302.531 67.0756L335.97 65.7714C336.177 71.0812 338.485 76.0912 342.386 79.6993C346.287 83.3075 351.462 85.2182 356.771 85.0111C362.081 84.804 367.091 82.4961 370.699 78.595C374.307 74.694 376.218 69.5195 376.011 64.2097L409.45 62.9055Z" fill="#F8BE38" stroke="black" stroke-width="4" mask="url(#path-4-inside-4_142_3)"/>
</svg>
