<svg width="475" height="535" viewBox="0 0 475 535" fill="none" xmlns="http://www.w3.org/2000/svg">
<path d="M333 512L364.5 216.5H129.5L159 512" stroke="#221F20" stroke-width="2"/>
<path d="M365 213.5C365 217.152 362.092 220.904 356.13 224.517C350.228 228.093 341.621 231.35 330.897 234.098C309.465 239.591 279.802 243 247 243C214.198 243 184.535 239.591 163.103 234.098C152.379 231.35 143.772 228.093 137.87 224.517C131.908 220.904 129 217.152 129 213.5C129 209.848 131.908 206.096 137.87 202.483C143.772 198.907 152.379 195.65 163.103 192.902C184.535 187.409 214.198 184 247 184C279.802 184 309.465 187.409 330.897 192.902C341.621 195.65 350.228 198.907 356.13 202.483C362.092 206.096 365 209.848 365 213.5Z" fill="#221F20" stroke="#221F20" stroke-width="2"/>
<path d="M333 512C333 514.626 330.946 517.391 326.559 520.102C322.226 522.779 315.89 525.227 307.973 527.296C292.152 531.431 270.241 534 246 534C221.759 534 199.848 531.431 184.027 527.296C176.11 525.227 169.774 522.779 165.441 520.102C161.054 517.391 159 514.626 159 512C159 509.374 161.054 506.609 165.441 503.898C169.774 501.221 176.11 498.773 184.027 496.704C199.848 492.569 221.759 490 246 490C270.241 490 292.152 492.569 307.973 496.704C315.89 498.773 322.226 501.221 326.559 503.898C330.946 506.609 333 509.374 333 512Z" fill="#221F20" stroke="#221F20" stroke-width="2"/>
<circle cx="237.5" cy="455.452" r="19.5" fill="#221F20"/>
<circle cx="210.5" cy="393.452" r="19.5" fill="#221F20"/>
<circle cx="300.5" cy="392.452" r="19.5" fill="#221F20"/>
<circle cx="300.5" cy="445.452" r="19.5" fill="#221F20"/>
<path fill-rule="evenodd" clip-rule="evenodd" d="M263.428 430.68C253.361 434.506 242.098 429.447 238.272 419.38C234.446 409.313 239.505 398.051 249.572 394.225C259.639 390.398 270.901 395.458 274.728 405.525C278.554 415.592 273.495 426.854 263.428 430.68ZM266.219 416.263C265.627 417.16 264.924 418.019 264.261 418.829C262.533 420.94 261.079 422.718 262.579 423.966C263.471 424.898 266.294 425.22 270.45 419.053C272.42 416.067 273.643 412.588 271.901 411.438C270.159 410.289 268.353 413.027 266.219 416.263ZM256.868 427.825C257.26 428.857 258.624 429.296 259.915 428.806C261.206 428.315 261.934 427.081 261.541 426.048C261.149 425.016 259.785 424.576 258.494 425.067C257.203 425.557 256.475 426.792 256.868 427.825Z" fill="#221F20"/>
<path fill-rule="evenodd" clip-rule="evenodd" d="M273.624 372.781C268.472 382.238 256.629 385.728 247.172 380.576C237.714 375.424 234.224 363.581 239.376 354.124C244.528 344.667 256.371 341.176 265.829 346.328C275.286 351.48 278.776 363.324 273.624 372.781ZM266.358 360.019C266.493 361.085 266.519 362.195 266.543 363.241C266.605 365.969 266.658 368.265 268.609 368.236C269.893 368.363 272.246 366.77 271.387 359.383C270.939 355.834 269.603 352.396 267.532 352.658C265.461 352.919 265.872 356.173 266.358 360.019ZM266.785 374.883C267.755 375.411 269.077 374.857 269.738 373.644C270.398 372.432 270.147 371.02 269.177 370.492C268.207 369.964 266.885 370.518 266.225 371.731C265.564 372.943 265.815 374.354 266.785 374.883Z" fill="#221F20"/>
<path fill-rule="evenodd" clip-rule="evenodd" d="M210.642 439.441C211.009 450.204 202.581 459.227 191.818 459.594C181.054 459.961 172.031 451.533 171.664 440.77C171.297 430.007 179.725 420.984 190.489 420.617C201.252 420.25 210.275 428.678 210.642 439.441ZM197.9 432.14C198.558 432.99 199.144 433.933 199.696 434.822C201.136 437.139 202.348 439.091 204.013 438.074C205.184 437.531 206.401 434.963 201.909 429.038C199.719 426.208 196.822 423.926 195.171 425.203C193.521 426.481 195.528 429.074 197.9 432.14ZM205.819 444.726C206.923 444.688 207.78 443.539 207.733 442.159C207.686 440.779 206.753 439.691 205.649 439.729C204.545 439.766 203.688 440.916 203.735 442.296C203.782 443.675 204.715 444.764 205.819 444.726Z" fill="#221F20"/>
<path d="M75.3585 267.999C69.9188 272.371 56.8428 275.682 50 275.278C54.8302 278.513 68.8601 284.779 71.7358 289.835C76.566 298.327 78.9811 310.458 78.9811 320.163C81.7987 314.906 85.9849 297.114 89.8491 292.261C93.7132 287.409 107.962 285.387 114 284.983C106.755 282.556 101.925 282.556 94.6792 276.491C86.6863 269.799 86.2264 254.25 87.434 246.163C85.0189 251.42 81.3962 263.147 75.3585 267.999Z" fill="#9EC3D0"/>
<path d="M50 275.278L50.059 274.279C49.6086 274.253 49.1961 274.531 49.0522 274.959C48.9083 275.386 49.0686 275.858 49.4435 276.109L50 275.278ZM75.3585 267.999L74.732 267.22L74.732 267.22L75.3585 267.999ZM87.434 246.163L88.423 246.311C88.4965 245.818 88.1966 245.347 87.7194 245.205C87.2422 245.062 86.7331 245.293 86.5253 245.745L87.434 246.163ZM94.6792 276.491L94.0373 277.258L94.0373 277.258L94.6792 276.491ZM114 284.983L114.067 285.98C114.543 285.948 114.931 285.584 114.992 285.11C115.053 284.637 114.77 284.186 114.318 284.034L114 284.983ZM89.8491 292.261L89.0668 291.638L89.0668 291.638L89.8491 292.261ZM78.9811 320.163H77.9811C77.9811 320.621 78.2929 321.021 78.7376 321.133C79.1823 321.245 79.6459 321.039 79.8625 320.635L78.9811 320.163ZM71.7358 289.835L72.6051 289.341L72.6051 289.341L71.7358 289.835ZM49.941 276.276C53.5147 276.487 58.6127 275.732 63.471 274.394C68.3167 273.058 73.1042 271.094 75.9849 268.778L74.732 267.22C72.1731 269.276 67.7027 271.153 62.9398 272.465C58.1895 273.774 53.328 274.473 50.059 274.279L49.941 276.276ZM75.9849 268.778C79.196 266.198 81.6908 261.868 83.6605 257.656C84.6537 255.533 85.53 253.402 86.3045 251.485C87.0846 249.554 87.7515 247.867 88.3427 246.58L86.5253 245.745C85.9089 247.087 85.2173 248.837 84.4502 250.736C83.6775 252.648 82.818 254.737 81.8489 256.809C79.8941 260.988 77.5587 264.948 74.732 267.22L75.9849 268.778ZM86.4449 246.015C85.8276 250.15 85.6376 256.165 86.6202 262.016C87.5981 267.838 89.7694 273.685 94.0373 277.258L95.3212 275.724C91.5961 272.606 89.541 267.331 88.5926 261.685C87.649 256.066 87.8327 250.264 88.423 246.311L86.4449 246.015ZM94.0373 277.258C101.475 283.485 106.639 283.572 113.682 285.931L114.318 284.034C106.87 281.541 102.374 281.628 95.3212 275.724L94.0373 277.258ZM113.933 283.985C110.871 284.19 105.741 284.803 100.874 285.982C98.4405 286.571 96.0455 287.309 93.9972 288.22C91.9689 289.123 90.181 290.239 89.0668 291.638L90.6313 292.884C91.4492 291.857 92.8915 290.901 94.8103 290.047C96.7093 289.202 98.9783 288.499 101.345 287.926C106.078 286.78 111.091 286.18 114.067 285.98L113.933 283.985ZM89.0668 291.638C88.0023 292.975 86.9715 295.117 85.9894 297.555C84.9967 300.02 84.0147 302.889 83.0729 305.748C82.1263 308.621 81.2254 311.467 80.3783 313.944C79.5271 316.434 78.7604 318.458 78.0998 319.691L79.8625 320.635C80.6106 319.24 81.4239 317.068 82.2707 314.592C83.1218 312.103 84.0372 309.212 84.9724 306.373C85.9124 303.52 86.8775 300.703 87.8446 298.302C88.8222 295.875 89.7637 293.974 90.6313 292.884L89.0668 291.638ZM79.9811 320.163C79.9811 310.336 77.5432 298.022 72.6051 289.341L70.8666 290.33C75.5889 298.632 77.9811 310.58 77.9811 320.163H79.9811ZM72.6051 289.341C71.7799 287.89 70.2239 286.449 68.4064 285.083C66.5651 283.699 64.3519 282.318 62.104 281.009C59.855 279.7 57.5434 278.447 55.5114 277.33C53.4625 276.203 51.7207 275.227 50.5565 274.447L49.4435 276.109C50.6944 276.946 52.5176 277.966 54.5477 279.082C56.5947 280.208 58.876 281.444 61.0977 282.738C63.3205 284.032 65.4558 285.368 67.2049 286.682C68.9778 288.014 70.2539 289.252 70.8666 290.33L72.6051 289.341Z" fill="black"/>
<path d="M8.64841 215.176C11.3424 194.415 58.0546 187.544 79.5099 198.709C57.9417 203.075 59.2733 223.624 40.1111 233.577C20.9489 243.53 5.95438 235.936 8.64841 215.176Z" fill="#F892CA" stroke="black" stroke-width="2"/>
<path d="M52.6462 157.906C61.7771 152.009 80.1707 168.215 82.9433 180.464C73.9777 173.381 66.2812 180.802 55.9087 176.547C45.5361 172.292 43.5153 163.802 52.6462 157.906Z" fill="#F892CA" stroke="black" stroke-width="2"/>
<path d="M292.366 63.7975L292.645 64.4581L293.361 64.4055L317.948 62.5983L295.239 72.196L294.579 72.4752L294.631 73.1904L296.438 97.778L286.841 75.069L286.561 74.4084L285.846 74.461L261.259 76.2682L283.968 66.6705L284.628 66.3913L284.576 65.6761L282.768 41.0885L292.366 63.7975Z" fill="#F892CA" stroke="black" stroke-width="2"/>
<path d="M365.611 87.8233L386.195 72.3776L381.829 97.7393L381.654 98.7536L382.673 98.8989L408.15 102.532L387.129 117.378L386.288 117.972L386.906 118.795L402.352 139.379L376.99 135.013L375.976 134.838L375.83 135.857L372.197 161.334L357.351 140.313L356.757 139.473L355.934 140.09L335.35 155.536L339.716 130.174L339.891 129.16L338.872 129.015L313.395 125.381L334.416 110.535L335.257 109.942L334.639 109.118L319.193 88.5342L344.555 92.9007L345.569 93.0753L345.714 92.0564L349.348 66.5794L364.194 87.6003L364.788 88.441L365.611 87.8233Z" fill="#F8BE38" stroke="black" stroke-width="2"/>
<path d="M427.326 144.535L437.929 163.223L438.315 163.903L439.067 163.693L459.768 157.935L445.271 173.795L444.744 174.371L445.176 175.022L457.049 192.93L437.486 184.044L436.775 183.721L436.289 184.332L422.926 201.159L425.333 179.807L425.42 179.031L424.688 178.758L404.556 171.249L425.607 166.939L426.372 166.783L426.405 166.002L427.326 144.535Z" fill="#B6E2F2" stroke="black" stroke-width="2"/>
<circle cx="271.475" cy="100.733" r="5.69673" transform="rotate(-13.5573 271.475 100.733)" stroke="black" stroke-width="2"/>
<rect x="422.595" y="79.0986" width="16.8726" height="44.2683" rx="8.4363" transform="rotate(-13.5573 422.595 79.0986)" stroke="black" stroke-width="2"/>
</svg>
