<svg width="1440" height="306" viewBox="0 0 1440 306" fill="none" xmlns="http://www.w3.org/2000/svg">
<path d="M0 0H1440V305H0V0Z" fill="#F8BE38"/>
<path d="M605.299 103.363C607.931 89.4515 611.128 74.692 604.899 67.3756C600.259 61.9271 590.755 63.2281 586.506 68.986C577.481 81.2156 590.027 103.363 605.299 103.363Z" fill="#B6E2F2"/>
<path d="M1447.5 304.863V153.363C1426 153.363 1412.87 156.882 1404 175.363C1400.08 183.532 1398.19 191.273 1396.54 197.995C1393.16 211.844 1390.83 221.363 1374 221.363C1349 221.363 1347 191.363 1370 146.363C1385.48 116.085 1382.5 66.8628 1356 62.3628C1329.5 57.8628 1321.5 95.8628 1331 140.863C1337 183.363 1322.78 217.39 1305.5 225.363C1292.5 231.363 1271.5 225.363 1266 175.363L1265.92 174.595C1262.19 140.665 1259.24 113.863 1224.5 113.863C1205.12 113.863 1194.01 138.004 1183.89 160.021C1175.73 177.759 1168.21 194.118 1157.5 195.363C1120.87 199.622 1121.31 175.445 1121.67 155.704C1121.91 142.842 1122.11 131.863 1112 131.863C1091.23 131.863 1093.54 149.03 1095.71 165.146C1096.36 169.976 1097 174.712 1097 178.863C1097 206.363 1059 222.863 1049.5 195.363C1046.82 187.619 1045.5 179.915 1044.28 172.842C1041.17 154.798 1038.77 140.863 1016.5 140.863C1002.91 140.863 982.874 155.378 965.968 173.703C958.727 181.552 943.713 179.611 935.76 172.484C926.629 164.301 915.101 160.842 905.147 168.245C900.968 171.354 897.444 175.729 894.5 181.863C889.764 191.729 889.312 199.96 888.962 206.309C888.426 216.049 888.134 221.363 873 221.363C848 221.363 846 191.363 869 146.363C884.475 116.085 881.5 66.8628 855 62.3628C828.5 57.8628 820.5 95.8628 830 140.863C836 183.363 821.775 217.39 804.5 225.363C791.5 231.363 770.5 225.363 765 175.363L764.916 174.595C761.185 140.665 758.239 113.863 723.5 113.863C704.116 113.863 693.014 138.004 682.889 160.021C674.731 177.759 667.208 194.118 656.5 195.363C619.869 199.622 620.312 175.445 620.675 155.704C620.911 142.842 621.112 131.863 611 131.863C590.226 131.863 592.539 149.03 594.711 165.146C595.362 169.976 596 174.712 596 178.863C596 206.363 551 247 525 216.5C515.5 189 506.5 182.5 491.5 182.5C468.742 182.5 476.158 199.236 448.973 215.499C446.449 217.009 443.14 216.282 441.714 213.709C425.606 184.653 460.18 151.603 423.5 146.363C401.229 146.363 411.108 161.456 408 179.5C406.782 186.573 402.143 193.509 395 199C379.431 210.968 347.5 210 347.5 182.5C347.5 178.349 349.138 169.976 349.789 165.146C351.961 149.03 354.274 131.863 333.5 131.863C323.387 131.863 323.589 142.842 323.825 155.704C324.188 175.445 324.631 199.622 288 195.363C277.292 194.118 269.769 177.759 261.611 160.021C251.486 138.004 240.384 113.863 221 113.863C186.261 113.863 183.315 140.665 179.584 174.595L179.5 175.363C174 225.363 153 231.363 140 225.363C122.725 217.39 108.5 183.363 114.5 140.863C124 95.8628 116 57.8628 89.5 62.3628C63 66.8628 60.0245 116.085 75.5 146.363C98.5 191.363 96.5 221.363 71.5 221.363C54.6688 221.363 52.342 211.844 48.9565 197.995C47.3135 191.273 45.421 183.532 41.5 175.363C32.629 156.882 19.5 153.363 -2 153.363V304.863H1447.5Z" fill="#B6E2F2"/>
<path d="M339.201 103.363C339.075 102.695 338.947 102.025 338.819 101.354C336.284 88.0513 333.671 74.3407 339.601 67.3757C344.24 61.9271 353.745 63.2281 357.994 68.986C367.019 81.2156 354.473 103.363 339.201 103.363Z" fill="#B6E2F2"/>
<path d="M1106.68 101.354C1106.55 102.025 1106.43 102.695 1106.3 103.363C1091.03 103.363 1078.48 81.2156 1087.51 68.986C1091.75 63.2281 1101.26 61.9271 1105.9 67.3757C1111.83 74.3408 1109.22 88.0516 1106.68 101.354Z" fill="#B6E2F2"/>
</svg>
