<svg width="304" height="335" viewBox="0 0 304 335" fill="none" xmlns="http://www.w3.org/2000/svg">
<path d="M65.2157 49.9601L65.3323 50.6677L66.0399 50.7843L109.847 58L66.0399 65.2157L65.3323 65.3323L65.2157 66.0399L58 109.847L50.7843 66.0399L50.6677 65.3323L49.9601 65.2157L6.15288 58L49.9601 50.7843L50.6677 50.6677L50.7843 49.9601L58 6.15288L65.2157 49.9601Z" fill="#F892CA" stroke="black" stroke-width="2"/>
<path d="M172.034 116.042L212.336 98.6641L194.958 138.966L194.55 139.911L195.507 140.291L236.292 156.5L195.507 172.709L194.55 173.089L194.958 174.034L212.336 214.336L172.034 196.958L171.089 196.55L170.709 197.507L154.5 238.292L138.291 197.507L137.911 196.55L136.966 196.958L96.6641 214.336L114.042 174.034L114.45 173.089L113.493 172.709L72.7076 156.5L113.493 140.291L114.45 139.911L114.042 138.966L96.6641 98.6641L136.966 116.042L137.911 116.45L138.291 115.493L154.5 74.7076L170.709 115.493L171.089 116.45L172.034 116.042Z" fill="#F8BE38" stroke="black" stroke-width="2"/>
<path d="M249 228.625L259.354 264.702L259.569 265.453L260.35 265.426L297.86 264.124L266.748 285.12L266.101 285.556L266.368 286.29L279.197 321.563L249.615 298.462L249 297.981L248.385 298.462L218.803 321.563L231.632 286.29L231.899 285.556L231.252 285.12L200.14 264.124L237.65 265.426L238.431 265.453L238.646 264.702L249 228.625Z" fill="#B6E2F2" stroke="black" stroke-width="2"/>
<circle cx="17" cy="101" r="10" stroke="black" stroke-width="2"/>
<rect x="266" y="124" width="29" height="74" rx="14.5" stroke="black" stroke-width="2"/>
</svg>
