<svg width="636" height="70" viewBox="0 0 636 70" fill="none" xmlns="http://www.w3.org/2000/svg">
<rect x="11" width="625" height="70" fill="#221F20"/>
<path d="M21 35C21 44.5922 19.7767 53.2363 17.8242 59.4489C16.8461 62.5611 15.7022 65.0069 14.479 66.6531C13.2419 68.318 12.0551 69 11 69C9.9449 69 8.75811 68.318 7.52097 66.6531C6.29777 65.0069 5.15393 62.5611 4.17582 59.4489C2.2233 53.2363 1 44.5922 1 35C1 25.4078 2.2233 16.7637 4.17582 10.5511C5.15393 7.43891 6.29777 4.99308 7.52097 3.3469C8.75811 1.68197 9.9449 1 11 1C12.0551 1 13.2419 1.68197 14.479 3.3469C15.7022 4.99308 16.8461 7.43891 17.8242 10.5511C19.7767 16.7637 21 25.4078 21 35Z" fill="white" stroke="#221F20" stroke-width="2"/>
</svg>
