<svg width="198" height="130" viewBox="0 0 198 130" fill="none" xmlns="http://www.w3.org/2000/svg">
<path d="M85.6517 114.153C82.2404 113.047 80.3284 110.52 79.9157 106.571C79.4807 102.691 79.7941 98.5197 80.8559 94.0566C81.9873 89.616 83.7055 83.8395 86.0106 76.7271C87.7786 71.2719 89.5428 66.5405 91.3033 62.5327C93.1333 58.5475 95.3761 55.3065 98.0317 52.8097C100.687 50.3129 103.721 49.6173 107.132 50.7229C110.682 51.8736 112.811 54.0894 113.517 57.3705C115.499 56.7155 117.785 56.4263 120.376 56.503C123.058 56.5331 125.723 56.9768 128.368 57.8342C132.824 59.2782 136.573 61.7143 139.616 65.1423C142.66 68.5704 144.691 72.5098 145.71 76.9607C146.729 81.4115 146.523 85.8466 145.091 90.266C143.658 94.6853 141.213 98.433 137.754 101.509C134.318 104.516 130.362 106.515 125.887 107.506C121.411 108.497 116.946 108.271 112.49 106.827C109.775 105.947 107.346 104.778 105.202 103.321C103.082 101.794 101.387 100.138 100.119 98.3538C98.6869 102.773 97.4398 106.146 96.3781 108.473C95.3163 110.799 93.9127 112.519 92.1672 113.632C90.469 114.837 88.2972 115.01 85.6517 114.153ZM117.54 89.4637C119.35 90.0503 121.129 89.9019 122.877 89.0186C124.717 88.0888 125.928 86.7263 126.51 84.9309C127.092 83.1355 126.899 81.3562 125.932 79.593C125.057 77.7832 123.714 76.585 121.904 75.9984C120.094 75.4118 118.269 75.5834 116.429 76.5132C114.681 77.3965 113.516 78.7358 112.934 80.5312C112.353 82.3265 112.499 84.1291 113.374 85.9388C114.342 87.7021 115.73 88.877 117.54 89.4637Z" fill="#F5EAD9"/>
<path d="M37.5 79C29.9587 79 23.3471 77.1872 17.6653 73.5617C11.9835 69.8355 7.59297 64.6993 4.49379 58.1532C1.49793 51.5064 0 43.8525 0 35.1915C0 26.7319 1.39463 20.0851 4.18388 15.2511C6.97314 10.417 10.8471 8 15.8058 8C24.5868 8 28.9773 12.3809 28.9773 21.1426C28.9773 22.9553 28.9256 24.5667 28.8223 25.9766C28.719 27.2858 28.6157 28.444 28.5124 29.4511C28.0992 33.4794 27.8925 36.7021 27.8925 39.1192C27.8925 43.5504 28.8223 46.9241 30.6818 49.2404C32.5413 51.5567 34.814 52.7149 37.5 52.7149C40.2892 52.7149 42.562 51.6071 44.3182 49.3915C46.1777 47.0752 47.1074 43.6511 47.1074 39.1192C47.1074 35.8965 46.9525 32.9255 46.6426 30.2064C46.5393 29.3 46.4359 27.9908 46.3326 26.2787C46.2293 24.466 46.1777 22.8043 46.1777 21.2936C46.1777 12.4312 50.5682 8 59.3492 8C64.3078 8 68.1302 10.417 70.8161 15.2511C73.6054 19.9844 75 26.6312 75 35.1915C75 48.5858 71.7975 59.261 65.3925 67.217C58.9876 75.0723 49.6901 79 37.5 79Z" fill="#F5EAD9"/>
<path d="M165.5 48C173 61 177 92 161.5 107.5C195.5 98.7 188.833 58.1667 180.5 40.5L197.5 32C182.56 21.7077 166.381 13.3398 149.348 7.09423L130 0L139.276 22.8324C141.754 28.9323 143.689 35.2387 145.059 41.6786L148 55.5C150.667 54.1667 156 52.5 165.5 48Z" fill="#F8BE38"/>
</svg>
