<svg width="566" height="145" viewBox="0 0 566 145" fill="none" xmlns="http://www.w3.org/2000/svg">
<path d="M455.562 137.821C451.234 138.428 447.511 138.104 444.393 136.848C441.275 135.592 439.488 133.342 439.033 130.1C438.667 127.49 439.62 125.259 441.894 123.408C444.168 121.556 446.999 120.474 450.387 120.159C453.936 119.823 456.638 119.282 458.495 118.538C460.432 117.782 461.833 116.698 462.698 115.287C455.324 116.321 449.289 116.12 444.592 114.682C439.884 113.165 436.218 110.333 433.593 106.185C431.037 101.947 429.242 96.1503 428.21 88.795C427.322 82.4678 427.568 77.2316 428.948 73.0863C430.397 68.8506 433.245 66.4347 437.493 65.8386C441.259 65.31 444.174 65.9897 446.237 67.8776C448.369 69.6753 449.668 72.2349 450.135 75.5567L450.747 80.7935C450.811 81.8329 450.982 83.3412 451.259 85.3184C451.792 89.1147 452.678 91.934 453.917 93.7763C455.145 95.5394 457.202 96.2186 460.087 95.8137C462.973 95.4087 464.763 94.1897 465.458 92.1566C466.143 90.0444 466.224 87.1297 465.702 83.4125C465.425 81.4353 465.174 79.9382 464.95 78.9213L464.113 73.8369C463.614 70.2779 464.102 67.3465 465.576 65.0427C467.131 62.7277 469.792 61.3059 473.559 60.7773C477.807 60.1812 481.21 61.7197 483.768 65.393C486.327 69.0663 488.045 74.027 488.922 80.275C490.231 89.6076 490.073 98.38 488.447 106.592C486.89 114.714 483.404 121.615 477.99 127.294C472.656 132.962 465.18 136.471 455.562 137.821Z" fill="#F8BE38"/>
<path d="M386.029 104.665C380.19 105.539 375.204 104.946 371.069 102.886C366.923 100.752 364.475 97.1769 363.724 92.1618C363.074 87.8203 364.468 84.0914 367.904 80.975C371.341 77.8586 375.903 75.8746 381.592 75.0231C383.688 74.7094 385.662 74.6053 387.515 74.7106C389.431 74.73 390.759 74.9137 391.5 75.262C391.22 73.3907 390.205 71.9739 388.453 71.0115C386.691 69.9743 384.201 69.6966 380.982 70.1783C379.56 70.3912 378.416 70.6771 377.552 71.0362C376.687 71.3952 375.764 71.8776 374.784 72.4836C373.803 73.0896 372.88 73.5721 372.016 73.9311C371.226 74.2789 370.12 74.5592 368.698 74.7721C366.302 75.1306 364.341 74.8119 362.815 73.8159C361.277 72.7451 360.318 70.9372 359.937 68.3922C359.5 65.4729 360.178 62.8459 361.971 60.5112C363.839 58.1652 366.31 56.2648 369.383 54.81C372.445 53.2803 375.585 52.2745 378.804 51.7927C385.166 50.8404 390.66 51.2426 395.285 52.9993C399.974 54.6699 403.62 57.3001 406.224 60.89C408.902 64.4686 410.595 68.6158 411.3 73.3315C411.681 75.8765 411.81 78.268 411.686 80.506C411.636 82.7327 411.364 84.4953 410.87 85.7938C412.052 86.5352 412.995 87.4655 413.698 88.5847C414.476 89.6927 414.961 90.883 415.151 92.1555C415.476 94.3262 415.008 96.3096 413.746 98.1056C412.559 99.8904 410.768 100.962 408.373 101.321C406.576 101.589 405.077 101.546 403.876 101.19C402.675 100.834 401.354 100.19 399.913 99.2577C398.21 100.661 396.275 101.792 394.108 102.652C392.015 103.501 389.322 104.172 386.029 104.665ZM386.577 92.9886C388.149 92.7533 389.334 92.2316 390.131 91.4235C391.003 90.6041 391.367 89.7079 391.221 88.7348C391.075 87.7617 390.466 87.0112 389.392 86.4832C388.393 85.9439 387.107 85.792 385.535 86.0272C383.963 86.2625 382.741 86.7898 381.869 87.6092C381.072 88.4173 380.746 89.3079 380.891 90.281C381.037 91.2541 381.609 92.0102 382.608 92.5495C383.682 93.0775 385.005 93.2239 386.577 92.9886Z" fill="#F8BE38"/>
<path d="M301.323 106.422C295.474 104.798 290.68 101.932 286.941 97.8245C283.307 93.6559 280.935 88.9351 279.826 83.662C278.74 78.3052 278.93 72.9866 280.396 67.7064C282.118 61.5042 284.809 56.609 288.467 53.0207C292.231 49.3715 296.381 47.0481 300.917 46.0507C305.535 45.0761 310.151 45.2293 314.764 46.5102C319.377 47.7911 323.217 49.9405 326.283 52.9584C326.607 51.1526 326.801 49.1753 326.865 47.0265C327.012 44.9006 327.072 43.5634 327.047 43.0148C327.11 40.2336 327.22 37.9172 327.38 36.0656C327.539 34.214 327.863 32.4082 328.352 30.6481C329.329 27.128 331.103 24.7319 333.675 23.4598C336.246 22.1877 338.974 21.952 341.857 22.7525C346.47 24.0334 349.567 27.4209 351.147 32.915C352.727 38.4091 353.169 44.8059 352.473 52.1055C351.86 59.428 350.564 66.6513 348.586 73.7754C345.91 83.4139 341.085 92.3206 334.113 100.495C327.246 108.609 316.316 110.585 301.323 106.422ZM307.58 86.7641C309.804 87.3816 311.973 87.081 314.086 85.8622C316.222 84.5596 317.616 82.7349 318.268 80.3881C318.919 78.0414 318.666 75.7592 317.507 73.5417C316.348 71.3241 314.656 69.9066 312.432 69.289C310.208 68.6714 307.986 69.0025 305.768 70.2823C303.631 71.5849 302.237 73.4096 301.586 75.7564C300.934 78.1031 301.188 80.3853 302.347 82.6028C303.611 84.7594 305.356 86.1465 307.58 86.7641Z" fill="#F8BE38"/>
<path d="M195.175 134.672C190.46 134.886 187.17 132.323 185.304 126.986C183.512 121.644 182.401 114.212 181.97 104.689C181.774 100.36 181.795 96.7439 182.033 93.8413C182.341 90.8632 183.223 88.3291 184.678 86.2389C186.204 84.0733 188.625 82.9154 191.94 82.7654C194.003 82.672 195.829 83.0593 197.419 83.9272C199.082 84.7918 200.174 86.0799 200.694 87.7914C202.25 86.2751 204.3 85.0979 206.846 84.2597C209.392 83.4215 212.138 82.9357 215.085 82.8024C217.442 82.6957 219.863 83.1645 222.346 84.2089C224.903 85.2499 227.038 86.7438 228.75 88.6906C230.533 90.5619 231.476 92.652 231.581 94.9607C231.685 97.2695 230.931 99.364 229.318 101.244C227.776 103.049 225.642 104.013 222.916 104.137C222.032 104.177 221.18 104.107 220.36 103.927C219.613 103.744 218.94 103.558 218.341 103.368C216.842 102.857 215.65 102.622 214.766 102.662C211.892 102.792 209.401 104.025 207.293 106.362C205.254 108.623 204.313 111.485 204.47 114.948C204.643 118.772 204.639 121.954 204.459 124.492C204.278 127.031 203.497 129.343 202.115 131.43C200.73 133.445 198.417 134.526 195.175 134.672Z" fill="#F892CA"/>
<path d="M148.321 95.4122C143.006 95.7941 138.252 94.8301 134.061 92.5203C129.864 90.1383 126.505 86.6808 123.984 82.1477C121.53 77.5372 120.08 72.1294 119.634 65.9241C119.199 59.8631 119.839 55.0303 121.557 51.4256C123.274 47.821 125.88 45.8931 129.375 45.6419C135.564 45.1973 138.885 48.1136 139.336 54.3911C139.429 55.6899 139.475 56.8469 139.475 57.8623C139.47 58.8056 139.457 59.6406 139.436 60.3674C139.352 63.2745 139.372 65.5939 139.496 67.3256C139.724 70.5004 140.553 72.8705 141.983 74.4358C143.413 76.0012 145.075 76.7159 146.968 76.5799C148.934 76.4386 150.479 75.5298 151.603 73.8535C152.794 72.0998 153.273 69.5995 153.04 66.3525C152.874 64.0436 152.612 61.9228 152.253 59.9904C152.134 59.3462 151.994 58.4134 151.833 57.192C151.667 55.8985 151.545 54.7106 151.467 53.6282C151.011 47.2787 153.877 43.8815 160.067 43.4368C163.562 43.1857 166.38 44.7239 168.522 48.0512C170.732 51.3013 172.057 55.9928 172.498 62.1259C173.187 71.7225 171.48 79.533 167.375 85.5576C163.264 91.51 156.913 94.7949 148.321 95.4122Z" fill="#F892CA"/>
<path d="M104.724 119.459C100.38 121.695 96.0177 122.754 91.6382 122.635C87.3195 122.486 83.3895 121.291 79.8484 119.049C76.3385 116.718 73.5319 113.592 71.4288 109.671C69.3863 105.719 68.5533 101.685 68.9296 97.5681C69.306 93.451 70.767 89.6097 73.3127 86.044C75.9192 82.4482 79.4093 79.5618 83.7831 77.3849C88.0355 75.2684 92.3063 74.255 96.5955 74.3446C100.945 74.404 104.921 75.5393 108.523 77.7506C112.125 79.9618 114.977 83.028 117.081 86.9491C119.064 90.7815 119.882 94.786 119.535 98.9626C119.159 103.08 117.682 106.966 115.106 110.621C112.589 114.246 109.129 117.192 104.724 119.459ZM98.5198 106.308C100.16 105.492 101.277 104.157 101.871 102.305C102.465 100.452 102.348 98.6938 101.519 97.0298C100.691 95.3659 99.3738 94.242 97.5673 93.6582C95.7313 93.015 93.9931 93.1015 92.3529 93.9179C90.7128 94.7342 89.5957 96.0687 89.0019 97.9214C88.3785 99.7146 88.4809 101.443 89.309 103.107C90.1372 104.771 91.4693 105.925 93.3054 106.568C95.1415 107.211 96.8796 107.125 98.5198 106.308Z" fill="#F892CA"/>
<path d="M21.4307 86.7279C16.8109 85.0391 13.2888 82.7351 10.8644 79.8162C8.44006 76.8973 7.86779 73.6875 9.14754 70.1868C10.1776 67.3692 12.3152 65.634 15.5603 64.9812C18.8055 64.3285 22.1934 64.7443 25.7242 66.2286C29.426 67.7755 32.3972 68.6681 34.6377 68.9064C36.9638 69.176 38.9326 68.8311 40.5442 67.8715C32.6735 64.9942 26.7912 61.5855 22.8974 57.6454C19.0348 53.6199 16.9082 48.8255 16.5173 43.2622C16.2433 37.6448 17.5576 30.8658 20.4605 22.9252C22.9576 16.0946 25.9975 10.9628 29.5803 7.52962C33.2797 4.04238 37.3966 3.12756 41.9308 4.78516C45.9517 6.2551 48.4818 8.48675 49.5212 11.4801C50.6773 14.4194 50.5999 17.6821 49.289 21.2682L47.1005 26.8565C46.6092 27.9352 45.9733 29.5418 45.193 31.6764C43.6948 35.7747 43.0688 39.0789 43.3151 41.5887C43.5926 44.0132 45.2712 45.7884 48.3511 46.9143C51.4309 48.0402 53.8587 47.7663 55.6345 46.0924C57.4414 44.3331 59.0784 41.447 60.5455 37.434C61.3258 35.2995 61.8761 33.6616 62.1964 32.5203L64.0813 26.9662C65.4859 23.124 67.5351 20.437 70.2287 18.9051C73.008 17.4045 76.408 17.3891 80.429 18.8591C84.9632 20.5167 87.5194 23.871 88.0975 28.922C88.6756 33.973 87.7317 39.8711 85.2658 46.6163C81.5826 56.6915 76.7416 65.4238 70.7427 72.8133C64.8605 80.1487 57.7165 85.2321 49.3106 88.0635C40.9902 90.9262 31.6969 90.481 21.4307 86.7279Z" fill="#F892CA"/>
<path d="M524.416 51.1024C525.708 67.7406 526.139 94.1911 546.813 94.1911C569.21 94.1911 564.472 66.8874 565.764 51.1024C567.057 35.3174 563.611 11 540.783 11C517.955 11 523.124 34.4642 524.416 51.1024Z" fill="#F8BE38"/>
<path d="M531.307 120.642C531.738 113.816 539.871 109.798 546.813 111.256C554.263 112.82 559.734 121.922 556.719 127.894C554.016 133.25 549.828 136 542.937 136C535.577 136 530.877 127.468 531.307 120.642Z" fill="#F8BE38"/>
</svg>
