<svg width="68" height="90" viewBox="0 0 68 90" fill="none" xmlns="http://www.w3.org/2000/svg">
<path d="M36.936 90C21.4053 90 11.3787 85.264 6.856 75.792C2.41867 66.2347 0.2 56.5493 0.2 46.736C0.2 39.4827 0.84 32.3147 2.12 25.232C3.48533 18.1493 5.66133 12.2187 8.648 7.43999C11.6347 2.66133 15.5173 0.271996 20.296 0.271996C23.2827 0.271996 25.8427 1.21066 27.976 3.088C30.1093 4.96533 31.176 7.696 31.176 11.28C31.176 13.072 31.0053 14.864 30.664 16.656C30.3227 18.448 29.8107 20.6667 29.128 23.312C28.9573 23.824 28.616 25.104 28.104 27.152C27.6773 29.2 27.3787 31.12 27.208 32.912C30.9627 30.864 35.2293 29.84 40.008 29.84C44.7867 29.84 49.224 30.9067 53.32 33.04C57.5013 35.1733 60.872 38.4587 63.432 42.896C66.0773 47.248 67.4 52.5813 67.4 58.896C67.4 64.272 66.1627 69.3493 63.688 74.128C61.2133 78.8213 57.6293 82.6613 52.936 85.648C48.328 88.5493 42.9947 90 36.936 90ZM36.168 69.776C38.472 69.776 40.4773 68.9227 42.184 67.216C43.976 65.424 44.872 63.3333 44.872 60.944C44.872 58.5547 43.976 56.464 42.184 54.672C40.4773 52.88 38.472 51.984 36.168 51.984C33.864 51.984 31.8587 52.88 30.152 54.672C28.4453 56.464 27.592 58.5547 27.592 60.944C27.592 63.3333 28.4453 65.424 30.152 67.216C31.8587 68.9227 33.864 69.776 36.168 69.776Z" fill="#F892CA"/>
</svg>
