<svg width="161" height="36" viewBox="0 0 161 36" fill="none" xmlns="http://www.w3.org/2000/svg">
<path d="M58.232 32C53.864 32 51.044 30.668 49.772 28.004C48.524 25.316 47.9 22.592 47.9 19.832C47.9 17.792 48.08 15.776 48.44 13.784C48.824 11.792 49.436 10.124 50.276 8.78C51.116 7.436 52.208 6.764 53.552 6.764C54.392 6.764 55.112 7.028 55.712 7.556C56.312 8.084 56.612 8.852 56.612 9.86C56.612 10.364 56.564 10.868 56.468 11.372C56.372 11.876 56.228 12.5 56.036 13.244C55.988 13.388 55.892 13.748 55.748 14.324C55.628 14.9 55.544 15.44 55.496 15.944C56.552 15.368 57.752 15.08 59.096 15.08C60.44 15.08 61.688 15.38 62.84 15.98C64.016 16.58 64.964 17.504 65.684 18.752C66.428 19.976 66.8 21.476 66.8 23.252C66.8 24.764 66.452 26.192 65.756 27.536C65.06 28.856 64.052 29.936 62.732 30.776C61.436 31.592 59.936 32 58.232 32ZM58.016 26.312C58.664 26.312 59.228 26.072 59.708 25.592C60.212 25.088 60.464 24.5 60.464 23.828C60.464 23.156 60.212 22.568 59.708 22.064C59.228 21.56 58.664 21.308 58.016 21.308C57.368 21.308 56.804 21.56 56.324 22.064C55.844 22.568 55.604 23.156 55.604 23.828C55.604 24.5 55.844 25.088 56.324 25.592C56.804 26.072 57.368 26.312 58.016 26.312ZM76.9039 32.036C75.1759 32.06 73.6279 31.7 72.2599 30.956C70.9159 30.212 69.8599 29.192 69.0919 27.896C68.3479 26.576 67.9519 25.112 67.9039 23.504C67.8799 21.896 68.2519 20.456 69.0199 19.184C69.7879 17.912 70.8559 16.904 72.2239 16.16C73.6159 15.416 75.1759 15.044 76.9039 15.044C78.5839 15.044 80.0959 15.404 81.4399 16.124C82.8079 16.844 83.8879 17.852 84.6799 19.148C85.4719 20.444 85.8919 21.896 85.9399 23.504C85.9639 25.064 85.5919 26.492 84.8239 27.788C84.0559 29.06 82.9759 30.08 81.5839 30.848C80.2159 31.616 78.6559 32.012 76.9039 32.036ZM77.0119 26.78C77.6599 26.78 78.2239 26.528 78.7039 26.024C79.1839 25.52 79.4239 24.932 79.4239 24.26C79.4239 23.588 79.1839 23.012 78.7039 22.532C78.2239 22.028 77.6599 21.776 77.0119 21.776C76.3639 21.776 75.7999 22.028 75.3199 22.532C74.8399 23.012 74.5999 23.588 74.5999 24.26C74.5999 24.932 74.8399 25.52 75.3199 26.024C75.7999 26.528 76.3639 26.78 77.0119 26.78ZM97.3609 32C92.9929 32 90.1729 30.668 88.9009 28.004C87.6529 25.316 87.0289 22.592 87.0289 19.832C87.0289 17.792 87.2089 15.776 87.5689 13.784C87.9529 11.792 88.5649 10.124 89.4049 8.78C90.2449 7.436 91.3369 6.764 92.6809 6.764C93.5209 6.764 94.2409 7.028 94.8409 7.556C95.4409 8.084 95.7409 8.852 95.7409 9.86C95.7409 10.364 95.6929 10.868 95.5969 11.372C95.5009 11.876 95.3569 12.5 95.1649 13.244C95.1169 13.388 95.0209 13.748 94.8769 14.324C94.7569 14.9 94.6729 15.44 94.6249 15.944C95.6809 15.368 96.8809 15.08 98.2249 15.08C99.5689 15.08 100.817 15.38 101.969 15.98C103.145 16.58 104.093 17.504 104.813 18.752C105.557 19.976 105.929 21.476 105.929 23.252C105.929 24.764 105.581 26.192 104.885 27.536C104.189 28.856 103.181 29.936 101.861 30.776C100.565 31.592 99.0649 32 97.3609 32ZM97.1449 26.312C97.7929 26.312 98.3569 26.072 98.8369 25.592C99.3409 25.088 99.5929 24.5 99.5929 23.828C99.5929 23.156 99.3409 22.568 98.8369 22.064C98.3569 21.56 97.7929 21.308 97.1449 21.308C96.4969 21.308 95.9329 21.56 95.4529 22.064C94.9729 22.568 94.7329 23.156 94.7329 23.828C94.7329 24.5 94.9729 25.088 95.4529 25.592C95.9329 26.072 96.4969 26.312 97.1449 26.312ZM110.507 14.54C109.331 14.54 108.335 14.12 107.519 13.28C106.703 12.416 106.295 11.372 106.295 10.148C106.295 8.948 106.703 7.928 107.519 7.088C108.335 6.224 109.331 5.792 110.507 5.792C111.659 5.792 112.643 6.224 113.459 7.088C114.299 7.928 114.719 8.948 114.719 10.148C114.719 11.372 114.299 12.416 113.459 13.28C112.643 14.12 111.659 14.54 110.507 14.54ZM110.507 32C109.523 32 108.791 31.724 108.311 31.172C107.855 30.596 107.543 29.744 107.375 28.616C107.231 27.464 107.159 25.832 107.159 23.72C107.159 21.944 107.243 20.54 107.411 19.508C107.603 18.476 107.939 17.708 108.419 17.204C108.899 16.7 109.595 16.448 110.507 16.448C111.491 16.448 112.211 16.736 112.667 17.312C113.147 17.864 113.459 18.716 113.603 19.868C113.771 20.996 113.855 22.616 113.855 24.728C113.855 26.504 113.759 27.908 113.567 28.94C113.399 29.972 113.075 30.74 112.595 31.244C112.115 31.748 111.419 32 110.507 32ZM134.093 16.412C134.093 17.66 133.505 18.512 132.329 18.968C131.153 19.4 129.545 19.628 127.505 19.652C127.481 20.252 127.469 21.224 127.469 22.568C127.469 23.936 127.565 24.908 127.757 25.484C127.877 25.892 128.057 26.156 128.297 26.276C128.561 26.396 128.945 26.48 129.449 26.528C129.617 26.552 129.797 26.588 129.989 26.636C130.205 26.66 130.445 26.696 130.709 26.744C131.261 26.864 131.693 27.164 132.005 27.644C132.317 28.1 132.473 28.688 132.473 29.408C132.473 30.224 132.053 30.86 131.213 31.316C130.373 31.772 129.221 32 127.757 32C126.413 32 125.129 31.616 123.905 30.848C122.681 30.056 121.841 29 121.385 27.68C120.905 26.264 120.665 23.588 120.665 19.652C118.985 19.604 117.629 19.388 116.597 19.004C115.589 18.596 115.085 17.876 115.085 16.844C115.085 15.548 115.565 14.684 116.525 14.252C117.485 13.796 118.865 13.556 120.665 13.532C120.737 11.612 121.037 10.016 121.565 8.744C122.093 7.448 123.041 6.8 124.409 6.8C125.801 6.8 126.701 7.4 127.109 8.6C127.541 9.8 127.733 11.444 127.685 13.532C129.869 13.508 131.477 13.676 132.509 14.036C133.565 14.396 134.093 15.188 134.093 16.412ZM143.103 32.036C141.375 32.06 139.827 31.7 138.459 30.956C137.115 30.212 136.059 29.192 135.291 27.896C134.547 26.576 134.151 25.112 134.103 23.504C134.079 21.896 134.451 20.456 135.219 19.184C135.987 17.912 137.055 16.904 138.423 16.16C139.815 15.416 141.375 15.044 143.103 15.044C144.783 15.044 146.295 15.404 147.639 16.124C149.007 16.844 150.087 17.852 150.879 19.148C151.671 20.444 152.091 21.896 152.139 23.504C152.163 25.064 151.791 26.492 151.023 27.788C150.255 29.06 149.175 30.08 147.783 30.848C146.415 31.616 144.855 32.012 143.103 32.036ZM143.211 26.78C143.859 26.78 144.423 26.528 144.903 26.024C145.383 25.52 145.623 24.932 145.623 24.26C145.623 23.588 145.383 23.012 144.903 22.532C144.423 22.028 143.859 21.776 143.211 21.776C142.563 21.776 141.999 22.028 141.519 22.532C141.039 23.012 140.799 23.588 140.799 24.26C140.799 24.932 141.039 25.52 141.519 26.024C141.999 26.528 142.563 26.78 143.211 26.78Z" fill="#221F20"/>
<path d="M15 33C23.2843 33 30 26.2843 30 18C30 16.8902 29.8795 15.8085 29.6508 14.7673C28.5992 9.97976 25.2607 6.04914 20.8387 4.17877C19.0441 3.41973 17.0711 3 15 3C6.71573 3 0 9.71573 0 18C0 26.2843 6.71573 33 15 33Z" fill="#221F20"/>
<path d="M22.1757 10.2227C23.5015 12.0622 24.2561 14.5904 25.6316 13.814C26.3266 13.5198 27.0897 12.043 24.5812 8.48902C23.3574 6.79105 21.7091 5.39903 20.7186 6.1129C19.7281 6.82678 20.8499 8.38325 22.1757 10.2227Z" fill="white"/>
<circle cx="26.5036" cy="16.3008" r="1.22093" fill="white"/>
</svg>
