<svg width="9" height="12" viewBox="0 0 9 12" fill="none" xmlns="http://www.w3.org/2000/svg">
<path d="M0.305697 11.7676C0.40195 11.8413 0.516293 11.8997 0.642179 11.9396C0.768066 11.9795 0.903021 12 1.03932 12C1.17561 12 1.31057 11.9795 1.43645 11.9396C1.56234 11.8997 1.67668 11.8413 1.77293 11.7676L8.7444 6.44618C8.82124 6.38764 8.88221 6.3181 8.92381 6.24156C8.9654 6.16501 8.98682 6.08296 8.98682 6.00008C8.98682 5.91721 8.9654 5.83516 8.92381 5.75861C8.88221 5.68206 8.82124 5.61253 8.7444 5.55399L1.77293 0.232537C1.36675 -0.0775124 0.711882 -0.0775124 0.305697 0.232537C-0.100488 0.542586 -0.100488 1.04246 0.305697 1.35251L6.39018 5.99692L0.297407 10.6477C-0.100488 10.9577 -0.100488 11.4576 0.305697 11.7676Z" fill="black" fill-opacity="0.3"/>
</svg>
