<svg width="24" height="21" viewBox="0 0 24 21" fill="none" xmlns="http://www.w3.org/2000/svg">
<path d="M23.8933 2.4261C23.1169 2.76717 22.3007 3.00468 21.4649 3.13274C21.8557 3.06436 22.4307 2.34632 22.6595 2.05569C23.0073 1.6173 23.2723 1.11684 23.4411 0.579729C23.4411 0.539838 23.4802 0.482851 23.4411 0.454358C23.4214 0.443385 23.3993 0.437634 23.3769 0.437634C23.3545 0.437634 23.3324 0.443385 23.3127 0.454358C22.4051 0.956083 21.4392 1.33901 20.4378 1.5941C20.4029 1.60498 20.3657 1.60596 20.3303 1.59692C20.2949 1.58789 20.2626 1.56918 20.2368 1.54281C20.1588 1.44805 20.0749 1.35859 19.9856 1.27497C19.5771 0.901391 19.1137 0.595633 18.6123 0.368877C17.9355 0.0854115 17.2044 -0.0373514 16.4743 0.00985986C15.7658 0.0555336 15.0742 0.249511 14.4423 0.579729C13.8201 0.927875 13.2732 1.40084 12.8346 1.97021C12.3732 2.55623 12.0401 3.23633 11.8576 3.96475C11.7072 4.65763 11.6902 5.37374 11.8074 6.07327C11.8074 6.19294 11.8074 6.21004 11.7069 6.19294C7.72667 5.59458 4.46098 4.15281 1.7926 1.05842C1.67537 0.92165 1.61396 0.92165 1.51906 1.05842C0.357928 2.85921 0.921749 5.70855 2.37317 7.11613C2.56855 7.30418 2.76952 7.48654 2.98165 7.6575C2.31618 7.60927 1.66697 7.42518 1.07247 7.11613C0.960825 7.04204 0.899419 7.08193 0.893837 7.2187C0.878012 7.40832 0.878012 7.59896 0.893837 7.78857C1.01032 8.69728 1.36113 9.55811 1.91039 10.283C2.45965 11.0079 3.18766 11.5709 4.01997 11.9144C4.22287 12.0031 4.43428 12.07 4.65078 12.1139C4.03472 12.2377 3.40288 12.2569 2.78068 12.1709C2.64671 12.1424 2.59646 12.2165 2.64671 12.3475C3.46732 14.627 5.2481 15.3222 6.55437 15.7098C6.73301 15.7382 6.91165 15.7382 7.11261 15.7838C7.11261 15.7838 7.11261 15.7838 7.07912 15.818C6.69393 16.5361 5.13645 17.0205 4.4219 17.2712C3.11768 17.7494 1.72713 17.9322 0.346763 17.8069C0.12905 17.7727 0.0788087 17.7784 0.0229849 17.8069C-0.032839 17.8354 0.0229849 17.898 0.0843911 17.955C0.36351 18.1431 0.642629 18.3084 0.932913 18.4679C1.79709 18.9491 2.7107 19.3313 3.65712 19.6077C8.55845 20.9867 14.0738 19.9724 17.7526 16.2397C20.6443 13.3106 21.6603 9.27023 21.6603 5.22416C21.6603 5.0703 21.8445 4.97912 21.9506 4.89934C22.6822 4.31744 23.3271 3.63023 23.8653 2.85921C23.9586 2.74427 24.0063 2.59794 23.9993 2.4489V2.4489C23.9993 2.36342 23.9993 2.38051 23.8933 2.4261Z" fill="#221F20"/>
</svg>
