<svg width="23" height="23" viewBox="0 0 23 23" fill="none" xmlns="http://www.w3.org/2000/svg">
<path d="M6.9 3.83236V5.36456H21.4667V8.39759L19.7656 13.7916H6.41758L4.50091 0H0V1.5322H3.16576L5.08243 15.3238H20.8901L23 8.63326V3.83236H6.9Z" fill="#1E1E1E"/>
<path d="M7.714 16.8727C6.90096 16.8736 6.12148 17.1968 5.54657 17.7712C4.97166 18.3457 4.64826 19.1246 4.64734 19.9371C4.64734 20.7498 4.97043 21.5292 5.54554 22.1039C6.12066 22.6786 6.90067 23.0015 7.714 23.0015C8.52734 23.0015 9.30735 22.6786 9.88247 22.1039C10.4576 21.5292 10.7807 20.7498 10.7807 19.9371C10.7798 19.1246 10.4564 18.3457 9.88146 17.7712C9.30654 17.1967 8.52706 16.8736 7.714 16.8727ZM7.714 21.4693C7.41074 21.4693 7.11429 21.3794 6.86213 21.211C6.60998 21.0427 6.41344 20.8034 6.29739 20.5234C6.18134 20.2434 6.15097 19.9354 6.21013 19.6382C6.2693 19.3409 6.41533 19.0679 6.62977 18.8536C6.84422 18.6394 7.11743 18.4934 7.41487 18.4343C7.7123 18.3752 8.02061 18.4055 8.30079 18.5215C8.58097 18.6375 8.82044 18.8339 8.98893 19.0858C9.15741 19.3378 9.24734 19.634 9.24734 19.9371C9.24686 20.3433 9.08515 20.7327 8.7977 21.02C8.51025 21.3072 8.12052 21.4688 7.714 21.4693Z" fill="#1E1E1E"/>
<path d="M18.4469 16.8727C17.6339 16.8736 16.8544 17.1968 16.2795 17.7712C15.7046 18.3457 15.3812 19.1246 15.3802 19.9371C15.3802 20.7498 15.7033 21.5292 16.2785 22.1039C16.8536 22.6786 17.6336 23.0015 18.4469 23.0015C19.2602 23.0015 20.0403 22.6786 20.6154 22.1039C21.1905 21.5292 21.5136 20.7498 21.5136 19.9371C21.5127 19.1246 21.1893 18.3457 20.6144 17.7712C20.0395 17.1967 19.26 16.8736 18.4469 16.8727ZM18.4469 21.4693C18.1437 21.4693 17.8472 21.3794 17.595 21.211C17.3429 21.0427 17.1464 20.8034 17.0303 20.5234C16.9142 20.2434 16.8839 19.9354 16.943 19.6382C17.0022 19.3409 17.1482 19.0679 17.3627 18.8536C17.5771 18.6394 17.8503 18.4934 18.1478 18.4343C18.4452 18.3752 18.7535 18.4055 19.0337 18.5215C19.3139 18.6375 19.5534 18.8339 19.7218 19.0858C19.8903 19.3378 19.9802 19.634 19.9802 19.9371C19.9798 20.3433 19.8181 20.7327 19.5306 21.02C19.2432 21.3072 18.8534 21.4688 18.4469 21.4693Z" fill="#1E1E1E"/>
</svg>
